<svg width="812" height="825" viewBox="0 0 812 825" fill="none" xmlns="http://www.w3.org/2000/svg">
<g filter="url(#filter0_f_324_7278)">
<path fill-rule="evenodd" clip-rule="evenodd" d="M423.502 157.566C489.01 136.509 658.769 333.785 698.315 390.049C729.505 434.423 628.789 455.677 638.426 509.037C651.696 582.52 700.885 611.266 638.426 652.275C571.434 696.26 511.898 637.958 431.751 636.319C355.467 634.759 282.549 683.012 217.201 643.661C155.926 606.762 141.033 470.559 170.858 405.588C193.656 355.924 285.902 381.484 319.149 338.102C284.962 250.192 351.723 180.64 423.502 157.566Z" fill="#0DADB7"/>
</g>
<g style="mix-blend-mode:luminosity">
<path d="M652.216 334.523C652.946 337.136 652.909 339.94 652.106 342.934L651.131 346.841C650.939 348.274 651.09 349.775 651.583 351.343C650.829 353.034 650.751 355.12 651.348 357.602C649.593 360.199 649.505 362.546 651.083 364.643C650.901 365.815 650.903 367.576 651.091 369.925C650.643 370.835 650.532 371.942 650.759 373.248L650.9 375.01L651.255 376.577C651.102 376.967 650.499 380.159 649.445 386.151C648.392 392.144 647.927 395.336 648.05 395.728L647.148 397.679L645.551 396.104L646.882 393.765L645.986 390.042C646.568 389.263 646.945 388.418 647.117 387.506L647.848 384.576L647.323 382.03L644.818 388.079L642.889 389.827L640.377 401.549L640.791 401.552L641.93 404.298L640.785 407.225C640.327 408.396 640.011 409.437 639.839 410.349L640.978 413.095L639.434 415.629C639.917 417.457 640.267 419.155 640.484 420.721L642.037 423.47L640.751 424.636L640.53 430.503L639.688 430.889L638.372 432.837L638.572 433.034L638.254 435.966C637.387 437.004 636.624 438.956 635.964 441.821L635.218 445.142C634.893 446.444 634.649 447.421 634.486 448.072L631.115 449.616L630.731 448.831L632.874 446.888L636.273 433.607C635.548 434.515 634.952 435.685 634.484 437.117L632.895 440.824L633.08 441.412L629.968 441.588L628.741 441.189C628.199 440.925 627.932 440.662 627.942 440.401C627.361 441.18 626.774 442.09 626.183 443.129L624.853 445.468C623.794 447.94 622.759 449.759 621.749 450.927L621.032 453.465C620.022 454.633 619.278 456.063 618.8 457.755C617.352 459.572 615.755 461.649 614.011 463.985C612.124 466.451 610.732 468.595 609.835 470.415L609.621 470.609L606.694 471.373C605.235 473.451 603.377 475.135 601.12 476.425L598.163 477.971C597.173 478.617 596.249 479.329 595.392 480.106C595.106 480.365 594.667 481.014 594.076 482.054C594.16 483.489 593.416 484.919 591.844 486.344L590.129 487.898L588.133 485.929C586.152 487.221 584.533 488.059 583.276 488.442L581.761 490.193L579.233 491.351L576.734 491.727C574.497 492.495 572.816 493.137 571.693 493.652C571.417 493.65 568.494 494.284 562.925 495.553C557.632 496.824 554.914 497.524 554.771 497.654L549.545 498.991C547.765 498.588 545.696 498.575 543.335 498.952L540.422 499.325L537.31 499.501L531.003 496.527C530.747 496.004 530.424 495.415 530.034 494.76L528.837 493.579L526.567 493.369L524.556 491.792C523.851 492.179 523.166 492.044 522.501 491.388C522.101 490.994 521.778 490.405 521.532 489.621L520.075 489.807L518.508 487.45L516.223 487.631L515.269 485.474C515.279 485.213 514.808 484.884 513.857 484.487L513.044 484.09L512.43 483.891L510.848 481.925C510.552 482.444 510.599 483.032 510.988 483.686C511.235 484.47 511.558 485.059 511.957 485.453L511.44 488.188L512.808 490.349L510.295 491.116L508.557 487.779C507.473 487.251 506.536 486.462 505.747 485.414L504.549 484.233L503.566 482.857C502.634 481.938 501.616 481.476 500.512 481.469C499.886 479.769 498.76 478.523 497.133 477.731C496.611 476.945 496.164 475.964 495.795 474.788L495.07 472.045C494.463 469.824 493.494 468.057 492.163 466.744L493.08 464.403L490.802 458.911C491.269 457.479 490.786 455.65 489.352 453.424L487.584 450.87C486.795 449.822 486.273 449.036 486.016 448.513L484.745 449.287C484.089 448.37 483.448 447.062 482.822 445.363C482.063 443.532 481.35 442.289 480.685 441.632L480.359 439.283L473.925 423.201L474.383 422.03C474.003 421.115 473.643 419.678 473.303 417.719L473.191 415.176L472.651 413.02L470.611 412.225C470.078 411.7 469.755 411.111 469.642 410.458C469.538 409.545 469.767 408.959 470.329 408.702L469.404 405.762L469.722 402.829L467.171 399.096L468.102 396.364C467.692 396.231 467.365 395.772 467.118 394.988L466.349 393.418C466.891 393.682 467.638 394.013 468.589 394.41C469.274 394.545 470.097 394.681 471.058 394.817L472.973 393.46L473.017 392.286L471.235 390.123C470.988 389.339 470.828 388.099 470.754 386.403L470.487 382.489C470.062 379.095 469.394 376.678 468.482 375.238L466.013 374.831C464.361 371.039 464.503 367.258 466.44 363.488L466.343 360.553C466.249 359.378 466.079 358.399 465.832 357.615C465.891 356.05 466.512 354.228 467.694 352.149L467.198 348.82C466.971 347.515 466.735 346.47 466.488 345.686L467.404 343.344L466.694 340.21C467.048 338.125 467.598 336.368 468.342 334.938L467.986 333.371L470.529 331.822L470.227 334.363L469.939 336.513C469.604 338.076 469.065 339.572 468.321 341.002L470.79 341.409L472.135 338.679C471.755 337.763 471.794 336.72 472.253 335.549C472.568 334.508 473.021 333.467 473.612 332.428C473.538 330.732 473.883 328.908 474.646 326.957L475.577 324.224L476.922 321.493L475.754 319.53L475.008 322.851L475.207 323.048L474.276 325.78L473.434 326.166C473.32 325.514 473.571 322.516 474.186 317.172L470.254 322.625L469.079 326.335C465.462 327.095 462.099 330.269 458.99 335.858C456.615 340.277 454.997 344.766 454.135 349.325L449.19 354.185C448.949 356.923 447.504 360.5 444.853 364.918C444.641 366.873 444.159 368.695 443.405 370.386L441.52 370.961L439.294 369.578C439.132 370.229 438.693 370.878 437.979 371.526L436.264 373.08C436.274 372.82 436.441 372.038 436.766 370.736C437.091 369.434 437.488 368.067 437.956 366.635C439.217 362.47 440.138 359.997 440.719 359.219L440.52 359.022L440.009 356.084C440.733 355.176 441.416 353.55 442.056 351.206L443.002 348.082L444.346 345.352C443.509 345.607 442.947 345.865 442.661 346.124C441.375 347.289 439.769 349.627 437.842 353.136C436.354 355.996 435.219 358.663 434.436 361.136L434.85 361.138C433.125 362.953 431.866 365.228 431.073 367.962C429.186 370.428 426.373 379.148 422.635 394.123C418.907 408.837 416.965 418.28 416.808 422.452L418.405 424.027L417.06 426.758C417.43 427.934 417.484 430.151 417.224 433.41C416.973 436.408 416.542 438.688 415.931 440.249L414.416 442C414.884 440.569 414.672 438.872 413.779 436.91C414.478 433.002 414.53 429.807 413.933 427.325L414.464 424.198L413.569 420.476C412.904 419.82 412.457 418.839 412.231 417.533L412.09 415.772L411.535 414.008L410.936 413.417L409.797 410.671C409.826 409.889 410.06 409.173 410.499 408.523L411.401 406.573L409.574 405.583C410.451 404.285 410.991 402.788 411.193 401.094L411.384 396.009C411.132 391.703 411.801 388.578 413.393 386.631L411.596 384.859L412.926 382.52L413.502 378.22C413.571 376.394 413.829 375.027 414.278 374.117L412.924 371.565C416.664 363.894 418.378 358.688 418.067 355.947C417.973 354.773 418.594 352.951 419.929 350.481L421.703 347.362C422.294 346.322 422.671 345.477 422.833 344.826C422.311 344.04 422.269 343.323 422.707 342.673L423.365 341.699L424.222 340.922C425.223 340.015 426.215 337.478 427.2 333.311C427.107 332.137 427.579 330.575 428.619 328.625L429.535 326.283C429.984 325.373 430.227 324.396 430.267 323.353C432.011 321.017 434.07 317.639 436.445 313.219L439.12 308.15L442.01 302.886C440.64 302.616 439.24 303.129 437.811 304.425L437.826 304.033L439.171 301.303C438.934 300.258 439.183 299.151 439.917 297.982L441.691 294.863L441.676 295.254L443.887 297.029C445.02 296.253 448.671 290.929 454.84 281.056L458.572 275.406L460.331 272.678L461.876 270.145C464.231 266.247 465.699 263.908 466.281 263.13L468.809 261.972C469.563 260.281 470.735 258.462 472.327 256.516L474.699 253.988L476.858 251.654C476.848 251.914 476.981 252.046 477.257 252.047C477.533 252.049 477.676 251.92 477.686 251.659C477.696 251.398 478.287 250.358 479.459 248.54C480.632 246.721 481.361 245.683 481.647 245.424L482.076 245.035L482.704 244.843L483.177 243.281C484.72 242.639 485.924 241.799 486.792 240.761L486.607 240.173L491.751 235.51L492.424 234.145L493.037 234.344C494.609 232.919 495.891 231.884 496.881 231.238C497.053 230.326 497.711 229.352 498.854 228.316L501.427 225.984C502.57 224.948 503.77 224.238 505.027 223.855L506.771 221.518C509.733 219.842 513.19 217.842 517.142 215.519C521.799 212.809 525.266 210.549 527.542 208.737L528.141 209.328C529.817 208.816 532.059 207.917 534.868 206.631C536.973 205.731 539.148 204.767 541.396 203.737C543.594 204.012 545.75 203.569 547.864 202.408L549.365 201.048C549.774 201.181 551.363 201.126 554.133 200.882L556.003 200.699L558.088 200.32L562.657 199.958C570.823 199.357 576.247 200.108 578.929 202.211C580.309 202.22 582.369 202.494 585.109 203.033L587.32 204.807L590.418 205.022C591.216 205.809 592.291 206.599 593.641 207.39L597.308 208.978C600.295 210.301 602.506 212.075 603.941 214.301C604.217 214.303 604.554 214.501 604.954 214.894C605.21 215.418 605.543 215.746 605.952 215.879L607.209 215.495C606.79 215.623 606.57 215.948 606.551 216.469C606.674 216.861 606.869 217.189 607.135 217.451C608.067 218.37 609.208 219.225 610.558 220.016L614.61 222.389L618.544 227.891L622.678 233.59C626.089 238.306 628.707 242.105 630.531 244.985C630.216 246.027 631.059 249.292 633.061 254.783C633.82 256.613 634.641 258.64 635.524 260.862C636.283 262.693 636.853 264.066 637.232 264.981C636.745 266.935 637.09 268.763 638.268 270.465L637.596 271.831L639.962 274.975C639.228 276.145 639.117 277.252 639.63 278.299L641.597 281.05C643.451 283.148 643.868 284.912 642.848 286.34L645.287 287.529L644.142 290.456L645.54 291.834L645.081 293.005L644.867 293.199L645.163 296.331L645.674 299.269C646.118 302.141 646.382 304.295 646.466 305.73L648.633 308.678L648.744 311.221L649.04 314.353C649.371 316.573 649.854 318.401 650.49 319.84C650.003 321.793 650.481 323.753 651.926 325.718L650.824 327.472C651.613 328.52 651.963 330.218 651.875 332.564L652.445 333.937L652.216 334.523ZM530.212 412.989C532.179 415.74 533.613 417.966 534.515 419.667C535.93 422.415 536.803 424.898 537.134 427.118L537.533 427.511L540.402 428.312L543.751 432.832L544.594 432.446L546.96 435.591L550.457 436.2L550.672 436.006L552.668 437.974C551.963 438.361 551.131 438.486 550.169 438.35L547.685 438.334L545.031 437.34L549.054 440.495L551.922 441.295L552.136 441.101L555.278 440.143L556.72 440.347L558.006 439.181L558.693 437.425L558.908 437.231C561.155 436.202 563.52 435.695 566.004 435.71C566.852 435.194 567.919 434.353 569.205 433.187L572.605 430.861C572.625 430.339 572.849 429.884 573.278 429.496L574.15 428.327C575.15 427.421 575.599 426.51 575.495 425.597L576.995 424.237C577.71 423.589 579.183 421.12 581.415 416.831L583.1 416.059C582.987 415.406 582.602 414.621 581.947 413.704C581.281 413.048 580.611 412.522 579.936 412.126L578.811 408.989L581.953 408.031C582.229 408.032 582.448 407.708 582.611 407.057C582.763 406.666 582.635 406.405 582.226 406.272L582.499 404.513L584.843 402.767L586.454 403.951L588.701 399.27L587.245 399.456C587.634 400.111 587.348 400.37 586.387 400.233L584.317 400.22L584.332 399.829L585.891 396.905L584.723 394.941L585.469 391.62L586.999 389.478L587.117 386.348L588.758 386.75L589.239 390.47C588.372 391.508 587.842 392.743 587.65 394.177L589.638 390.864L589.439 390.667L591.198 387.939L589.231 385.188L589.666 379.126L589.88 378.932L590.368 376.979L590.87 374.634C591.348 372.942 591.54 371.508 591.446 370.334C591.066 369.419 590.839 368.113 590.765 366.417L590.853 364.07L590.513 362.112L591.4 360.552L591.2 360.355L591.259 358.791C591.535 358.792 591.611 358.597 591.488 358.205L591.517 357.423C591.557 356.38 591.682 354.881 591.894 352.926L592.381 350.973L592.469 348.626C593.613 347.589 594.465 346.943 595.027 346.685L595.042 346.294L593.445 344.719L593.333 342.175L591.995 339.233L592.054 337.668L592.926 336.5L591.904 330.624C592.067 329.973 591.953 329.321 591.564 328.666L591.179 327.881L590.595 326.899L590.868 325.14C589.645 320.959 589.137 316.131 589.343 310.654L587.546 308.882L588.189 308.3L586.836 305.748C586.904 303.923 586.46 301.051 585.503 297.132L584.638 292.627L583.971 288.319C583.069 286.618 582.448 284.788 582.108 282.83C582.832 281.921 582.805 280.813 582.026 279.504L581.057 277.737L580.073 276.361C580.132 274.797 577.773 269.63 572.996 260.863C571.314 257.852 569.567 254.777 567.752 251.635C566.964 250.587 566.313 249.54 565.8 248.493C565.278 247.707 564.95 247.249 564.817 247.117C562.106 245.796 559.432 245.323 556.795 245.698L555.48 247.646L546.712 249.547L544.968 251.884L543.083 252.459L541.256 251.47L539.512 253.806L536.599 254.179L535.927 255.544C535.508 255.672 534.941 256.06 534.227 256.708L532.512 258.262L528.328 259.409L528.069 260.777L530.753 260.99C529.886 262.028 528.861 263.586 527.678 265.665L527.42 267.033L527.147 268.792C526.822 270.094 526.644 271.137 526.615 271.919L523.955 276.597L524.154 276.794C524.495 278.753 524.421 280.708 523.933 282.662L525.434 281.302L528.79 280.149L529.278 278.196C529.563 277.937 529.906 278.004 530.305 278.398C530.705 278.791 530.885 279.51 530.845 280.553C528.968 282.758 526.906 288.027 524.66 296.36C522.281 304.562 521.233 310.424 521.514 313.947C520.618 315.767 520.34 317.657 520.68 319.615C520.222 320.786 519.892 322.218 519.69 323.913L519.528 328.215C519.248 331.996 518.731 334.731 517.977 336.422C517.834 336.552 517.815 337.073 517.918 337.987L517.874 339.16L518.059 339.748L517.128 342.481C517.621 344.049 518.054 349.073 518.425 357.553L518.433 362.835L518.87 367.728C519.009 371.381 519.248 374.186 519.589 376.145L518.717 377.313C519.106 377.967 519.343 379.012 519.427 380.447L519.553 382.6L519.494 384.165L520.551 383.585C520.739 385.933 521.706 389.591 523.451 394.558C524.797 399.131 526.107 402.856 527.379 405.733L528.961 407.699L531.002 408.495L532.141 411.241L530.212 412.989ZM647.678 345.058C646.653 342.965 645.223 340.609 643.389 337.989L643.101 340.139C643.367 340.402 643.424 340.728 643.272 341.118C643.262 341.379 643.114 341.639 642.828 341.898C642.399 342.287 641.766 342.609 640.928 342.864C641.697 344.434 642.681 345.81 643.879 346.991L642.135 349.328L642.319 349.916L643.505 362.443C643.056 363.353 642.665 364.59 642.33 366.153L641.628 368.3L641.14 370.254C641.387 371.038 641.547 372.278 641.622 373.974C641.696 375.669 641.575 377.038 641.26 378.079C640.822 378.729 640.45 379.444 640.144 380.224L639.442 382.372L639.791 389.612L639.362 390.001L638.831 393.128L640.205 389.615C641.062 388.838 641.397 387.275 641.21 384.926L642.939 382.981C644.284 380.25 644.754 376.927 644.349 373.012L647.329 376.357L647.544 376.162C648.401 375.385 648.65 374.278 648.29 372.841L648.149 371.08C648.035 370.427 648.127 369.841 648.422 369.321L648.229 363.451L648.828 364.042L647.563 359.143L647.363 358.946L649.107 356.609L647.495 355.426C647.82 354.123 647.818 352.363 647.487 350.144C647.299 347.795 647.363 346.1 647.678 345.058ZM630.592 419.486C630.81 421.052 630.347 422.353 629.203 423.39L628.346 424.167L628.472 426.319L628.258 426.514L627.726 429.641L625.811 430.998C626.714 432.699 626.926 434.396 626.448 436.088C627.897 434.271 629.318 431.346 630.712 427.312L632.545 422.628C633.165 420.806 633.771 419.375 634.363 418.336L633.379 416.96L630.592 419.486ZM627.936 446.075L628.062 448.227L626.229 452.911C625.333 454.731 624.313 456.159 623.17 457.196C622.682 459.149 622.399 461.168 622.32 463.255L620.08 462.263L621.011 459.53C621.041 458.747 621.208 457.966 621.514 457.185L623.043 455.043L622.503 452.888L624.447 450.748L625.652 446.256L627.936 446.075ZM493.796 461.864C494.146 463.562 495.238 465.72 497.072 468.34L499.224 471.679C499.747 472.465 500.403 473.382 501.191 474.43L501.103 476.777L503.602 476.402L505.827 477.785L504.104 474.057L501.036 473.06L500.267 471.49L499.313 469.332C498.543 467.762 497.821 466.78 497.146 466.384C496.939 464.557 496.436 463.25 495.637 462.462L493.796 461.864ZM600.626 280.403C599.902 281.311 599.858 282.484 600.494 283.923L601.263 285.493L602.446 287.065C602.16 287.324 601.864 287.844 601.559 288.625L601.101 289.796L600.857 290.772L602.07 291.562C601.972 294.17 602.036 296.127 602.263 297.432L604.318 297.837C603.702 295.876 603.191 292.939 602.786 289.024L602.335 284.521L601.469 280.017L600.626 280.403ZM614.204 469.855L617.058 471.047L615.913 473.974L612.941 475.912L610.169 478.046L609.415 476.085L610.501 474.723L611.573 473.751L613.872 473.179L613.99 470.05L614.204 469.855ZM468.006 316.351C469.701 315.318 470.906 314.478 471.62 313.831C472.478 313.053 473.416 311.951 474.436 310.523L477.038 307.409L477.097 305.844L474.111 308.173C471.824 310.245 469.789 312.971 468.006 316.351ZM573.868 259.694L575.236 261.855C576.281 263.426 577.269 264.671 578.201 265.59L580.412 267.365C580.042 266.189 579.201 264.684 577.89 262.849L577.365 260.303L575.797 257.946L572.699 257.731L573.868 259.694ZM643.986 327.624C644.149 326.973 644.183 326.061 644.089 324.886L643.379 321.752C642.925 319.141 642.846 317.575 643.141 317.055L642.416 314.312L640.502 315.669L641.471 317.436L641.612 319.198L641.139 320.76L642.662 324.29C642.51 324.681 642.623 325.334 643.003 326.249L643.387 327.034L643.986 327.624ZM639.405 300.795L639.775 301.971C640.031 302.494 640.293 302.887 640.559 303.15L642.755 305.315C642.947 303.882 642.597 302.184 641.704 300.222C641.191 299.176 640.279 297.735 638.968 295.901L639.405 300.795ZM467.48 390.882L466.71 389.312C466.35 387.875 465.909 386.764 465.386 385.978L468.055 386.582L469.379 389.916L469.779 390.31L468.034 392.646L467.48 390.882ZM522.619 449.72L523.772 452.074L526.441 452.678L525.643 451.89L525.317 449.541L522.463 448.349L521.908 446.585L520.208 447.748L522.619 449.72ZM558.504 249.817C558.711 251.644 558.443 253.273 557.699 254.702L555.902 252.931L555.177 250.187L558.504 249.817ZM518.501 493.123C518.758 493.647 519.219 494.236 519.884 494.893L521.696 496.273L521.481 496.468L518.384 496.253L516.772 495.069L514.99 492.906L518.501 493.123ZM474.238 398.358C474.637 398.752 475.022 399.537 475.392 400.713C475.619 402.019 475.717 403.063 475.688 403.845L477.787 403.075L477.588 402.879C476.848 400.526 476.365 398.698 476.138 397.392L474.238 398.358ZM636.532 355.161L636.843 357.902L638.514 357.521L639.157 356.938L637.803 354.387L637.663 352.625L635.748 353.983L636.532 355.161ZM590.354 300.292L590.679 302.642L592.306 303.435L591.936 302.259L592.394 301.088C592.281 300.435 591.963 299.716 591.44 298.93L590.286 296.575L589.274 295.982L590.841 298.339L590.354 300.292ZM619.383 447.782L620.099 445.243L621.186 443.88L622.258 442.909L621.888 441.733L618.473 444.45L619.383 447.782ZM433.464 386.952C434.386 388.132 434.527 389.893 433.887 392.237C433.478 392.104 433.078 391.71 432.689 391.056L432.504 390.468L432.12 389.683L433.464 386.952ZM583.706 372.437C584.278 371.919 584.977 371.663 585.805 371.668L586.619 372.064L587.646 372.266L585.503 374.209L583.277 372.826L583.706 372.437ZM643.643 391.788C644.175 392.313 644.427 392.967 644.398 393.749L644.353 394.923L644.11 395.899L642.513 394.324L643.044 391.198L643.643 391.788ZM620.001 431.353C618.838 432.911 618.227 434.472 618.168 436.036L621.228 431.752L621.516 429.602L620.843 430.967L620.001 431.353ZM515.091 440.674C514.795 441.193 514.49 441.974 514.175 443.015C514.145 443.798 514.182 444.646 514.286 445.559L516.6 444.596L515.158 444.391C515.473 443.35 515.451 442.111 515.091 440.674ZM595.096 361.358C594.525 361.876 593.943 362.655 593.352 363.695L595.592 364.687C595.346 363.903 595.395 362.599 595.739 360.775L595.096 361.358ZM608.429 337.183L610.299 337C610.452 336.609 610.4 336.152 610.143 335.629L609.988 334.259L608.731 334.642L608.429 337.183ZM536.173 430.633L538.229 431.037L536.861 428.877L534.606 428.276L536.173 430.633ZM528.259 448.386L531.327 449.383L530.144 447.81L527.49 446.816L528.259 448.386ZM626.068 418.675L627.85 420.838L628.552 418.691L625.883 418.087L626.068 418.675ZM597.853 359.615L597.572 356.091L595.561 354.514L597.853 359.615ZM468.016 371.127L469.672 371.137L469.575 368.202L469.146 368.591L468.016 371.127ZM593.342 308.919L592.417 305.978L592.314 308.717L591.997 311.649L593.342 308.919ZM584.14 278.343L585.197 277.763L584.014 276.19L582.772 276.183L584.14 278.343ZM623.704 426.485L625.263 423.561L623.762 424.921L622.647 427.066L623.704 426.485ZM471.931 355.11L473.217 353.944L470.105 354.12L471.931 355.11ZM511.638 438.891L513.265 439.684C512.619 438.506 511.687 437.588 510.47 436.928L511.638 438.891ZM646.489 310.62L646.119 309.444L643.066 308.056L646.489 310.62ZM531.327 487.922L528.843 487.906L530.07 488.305L531.327 487.922Z" fill="white"/>
<path d="M439.93 525.114C440.061 524.712 440.548 524.515 441.012 524.668C441.476 524.822 441.75 524.59 441.626 524.149C441.495 523.709 440.026 522.771 438.359 522.054C436.332 521.189 435.431 521.055 435.61 521.688C435.756 522.218 435.494 521.858 435.021 520.896C434.556 519.932 433.422 518.88 432.498 518.556C431.506 518.209 431.142 517.723 431.61 517.381C432.045 517.062 433.304 517.179 434.411 517.64C441.122 520.426 436.337 516.807 429.313 513.617C424.565 511.404 423.819 511.225 423.424 512.25C422.942 513.5 423.394 513.83 427.296 515.07C428.648 515.502 429.838 516.202 429.942 516.625C430.047 517.055 428.373 516.726 426.223 515.907C424.079 515.078 421.614 514.58 420.78 514.752C419.809 514.974 419.015 514.728 418.639 514.096C417.978 512.976 415.356 512.642 414.949 513.623C414.806 513.972 414.31 514.101 413.846 513.916C413.382 513.731 413.364 513.208 413.82 512.75C414.401 512.16 413.904 511.55 412.164 510.568C410.811 509.814 409.579 509.486 409.43 509.845C409.282 510.203 408.85 509.955 408.484 509.298C408.299 508.965 407.197 508.236 405.578 507.326C403.968 506.391 401.857 505.248 399.606 504.147C398.485 503.595 397.404 503.049 396.41 502.537C395.436 502.005 394.546 501.499 393.792 501.062C392.282 500.181 391.31 499.53 391.231 499.337C391.08 498.949 392.249 499.277 393.83 500.062C394.62 500.451 395.823 501.045 397.136 501.668C398.467 502.27 399.895 502.912 401.102 503.458C403.534 504.531 406.02 505.881 406.666 506.392C407.993 507.491 408.799 506.436 407.754 504.977C407.557 504.719 406.022 503.867 403.716 502.67C401.416 501.462 398.285 500.018 395.028 498.385C391.76 496.77 388.721 495.318 386.553 494.134C384.374 492.969 382.986 492.199 382.908 492.108C382.459 491.565 380.875 490.702 379.365 490.049C377.848 489.397 376.44 488.9 376.283 489.19C376.075 489.564 375.831 489.246 375.738 488.482C375.59 487.268 375.364 487.182 373.943 487.789C372.85 488.253 372.363 488.167 372.471 487.512C372.559 486.971 371.127 485.638 369.236 484.489C367.644 483.533 365.784 482.289 363.034 480.5C361.661 479.601 360.081 478.564 358.209 477.331C356.366 476.059 354.246 474.588 351.783 472.878C349.91 471.582 348.361 470.286 347.655 469.531C346.96 468.757 347.071 468.565 348.538 469.464C349.481 470.028 349.701 469.895 349.535 468.866C349.42 468.139 349.641 467.464 350.03 467.377C350.418 467.29 350.36 466.989 349.897 466.709C349.434 466.429 348.961 466.624 348.836 467.173C348.389 469.147 345.867 468.835 342.782 466.421C341.142 465.139 339.29 463.735 338.672 463.305C337.599 462.568 337.644 462.494 339.518 461.965C342.049 461.252 343.168 461.985 343.026 464.269C342.964 465.267 343.101 466.051 343.326 466.004C344.009 465.861 344.809 462.598 344.176 462.588C343.85 462.581 343.085 461.714 342.474 460.668C341.512 459 342.111 459.286 347.407 462.993C350.699 465.349 353.893 467.785 354.364 468.582C354.849 469.368 355.647 470.014 356.143 470.011C356.639 470.007 356.814 470.397 356.537 470.874C356.171 471.506 356.379 471.581 357.275 471.15C357.96 470.825 358.324 470.893 358.086 471.305C357.848 471.717 358.169 472.575 358.807 473.213C360.051 474.458 361.028 473.81 359.933 472.466C359.577 472.01 360.246 472.263 361.462 472.973C362.677 473.682 363.528 474.512 363.352 474.823C363.175 475.133 363.739 475.758 364.601 476.216C366.104 477.004 366.123 476.984 365.128 475.694C364.31 474.643 364.707 474.688 366.938 475.904C368.512 476.754 370.916 477.904 372.309 478.404C374.377 479.149 374.518 479.303 373.078 479.254C371.575 479.205 371.664 479.341 373.676 480.178C374.976 480.717 376.003 481.559 375.965 482.048C375.92 482.539 376.18 482.444 376.546 481.843C377.106 480.912 377.44 481.019 378.844 482.594C379.748 483.608 380.212 484.596 379.867 484.798C379.52 484.993 379.565 485.336 379.973 485.551C380.382 485.773 380.87 485.638 381.07 485.267C381.264 484.897 383.191 485.487 385.351 486.571C388.306 488.067 389.256 488.275 389.175 487.429C389.113 486.729 389.356 486.913 389.832 487.921C390.457 489.247 390.77 489.43 391.629 488.913C392.425 488.427 392.599 488.621 392.371 489.746C392.13 490.953 392.193 491.017 392.739 490.089C393.338 489.061 393.566 489.155 395.387 491.14C397.631 493.596 401.176 495.536 401.006 494.233C400.939 493.769 401.504 493.726 402.251 494.133C402.998 494.54 403.384 495.02 403.099 495.207C402.814 495.395 403.323 496.057 404.235 496.683C405.146 497.31 406.003 497.588 406.134 497.288C406.42 496.652 407.797 497.44 408.719 498.756C409.096 499.293 410.266 499.337 411.493 498.872C414.005 497.92 414.263 497.526 412.802 496.908C412.203 496.654 411.503 496.919 411.251 497.5C410.999 498.081 410.464 498.408 410.06 498.239C408.951 497.771 410.094 495.809 411.833 495.147C412.728 494.81 413.655 494.954 414.042 495.504C414.906 496.708 419.332 498.638 419.177 497.748C419.117 497.377 419.493 497.238 420.035 497.42C420.577 497.602 420.469 497.196 419.813 496.515L418.743 495.369L418.821 495.365L419.993 496.061C420.996 496.642 421.132 497.293 420.487 498.52C419.633 500.121 419.665 500.153 421.238 499.265C422.449 498.575 422.753 498.014 422.441 497.067C422.101 496.065 422.467 495.983 424.225 496.686C426.122 497.441 426.48 497.322 426.747 495.841L427.066 494.119L427.289 496.055C427.489 497.767 428.483 498.798 430.384 499.183C430.709 499.253 430.833 499.663 430.666 500.105C430.498 500.547 429.776 500.496 429.026 499.979C428.257 499.451 427.551 499.404 427.365 499.866C427.118 500.469 426.97 500.411 426.805 499.673C426.661 499.024 425.905 498.642 424.695 498.6C422.191 498.521 421.761 499.821 424.008 500.719C425.329 501.245 425.635 501.784 425.158 502.765C424.482 504.158 423.12 503.877 422.999 502.326C422.955 501.794 422.091 501.329 420.882 501.192C418.927 500.97 418.91 500.998 420.462 501.696C421.357 502.098 421.969 502.759 421.806 503.153C421.634 503.58 420.792 503.361 419.742 502.619C418.501 501.743 418.026 501.671 418.16 502.377C418.27 502.956 420.09 504.036 422.427 504.912C424.662 505.757 426.433 506.063 426.344 505.637C426.255 505.21 426.535 505 426.976 505.16C427.41 505.321 427.669 505.73 427.543 506.052C427.166 507.025 434.055 509.571 435.719 508.991C436.646 508.686 436.913 508.746 436.41 509.137C435.96 509.49 436.063 510.165 436.644 510.637C438.145 511.866 438.284 511.855 438.795 510.464C439.23 509.281 439.272 509.294 439.596 510.772C439.892 512.076 440.964 512.647 446.307 514.297C448.075 514.817 450.011 515.405 451.71 515.933C453.428 516.441 454.913 516.896 455.731 517.175C457.369 517.742 458.995 518.036 459.269 517.899C460.256 517.39 462.252 511.829 461.591 511.55C458.404 510.23 457.481 510.07 457.228 510.966C456.963 511.911 457.736 512.524 459.729 512.831C460.213 512.91 460.476 513.467 460.312 514.081C460.103 514.871 459.135 514.974 456.966 514.365C455.234 513.868 454.063 513.148 454.205 512.665C454.337 512.207 453.967 511.213 453.372 510.462C452.394 509.175 452.442 509.116 454.012 509.566C454.951 509.824 456.026 509.765 456.395 509.439C456.785 509.1 456.513 508.891 455.753 508.943C455.024 508.996 454.526 508.701 454.652 508.285C454.771 507.87 455.357 507.491 455.944 507.442C456.532 507.392 456.221 507.091 455.262 506.783C454.278 506.473 453.831 505.937 454.223 505.605C454.602 505.285 456.583 505.547 458.606 506.201C462.591 507.46 464.985 506.929 465.544 504.74C465.733 504.001 466.317 503.261 466.845 503.1C467.374 502.939 467.783 502.1 467.767 501.231C467.754 500.18 468.574 499.217 470.199 498.316C471.544 497.562 472.16 497.05 471.589 497.198C471.016 497.338 470.643 497.075 470.755 496.599C470.869 496.131 471.683 495.719 472.568 495.692C473.499 495.661 474.098 495.176 474.008 494.553C473.926 493.96 474.237 493.333 474.701 493.165C475.162 492.989 475.47 492.379 475.391 491.8C475.305 491.161 475.689 490.925 476.388 491.203C478.03 491.816 478.653 490.468 477.921 488.995C477.503 488.287 477.49 487.142 477.865 486.39C478.295 485.506 478.24 484.993 477.64 484.864C477.124 484.754 476.503 483.766 476.243 482.642C475.811 480.821 476.053 480.392 477.926 478.51C479.008 477.388 479.703 476.109 479.925 475.15C480.157 474.197 479.924 473.57 479.12 473.767C478.614 473.89 478.249 473.657 478.333 473.259C478.635 471.919 477.346 472.258 476.56 473.716C476.134 474.521 475.459 474.921 475.069 474.616C474.68 474.318 473.529 474.387 472.491 474.751C470.609 475.376 470.616 475.406 473.009 475.607L475.41 475.783L473.386 476.435C472.049 476.872 470.604 476.675 469.231 475.965C467.2 474.889 467.194 474.835 468.96 474.797C470.622 474.721 470.585 474.667 468.586 474.046C467.379 473.658 466.463 473.622 466.55 473.978C466.634 474.32 465.078 474.087 463.086 473.363C460.973 472.598 459.541 472.389 459.639 472.853C459.745 473.346 459.054 473.138 457.83 472.265C456.74 471.486 453.81 470.22 451.324 469.318C447.874 468.117 446.887 467.47 447.171 466.701C447.411 466.037 447.955 466.006 448.746 466.559C449.67 467.206 449.953 467.106 449.954 466.114C449.955 465.092 449.622 464.89 448.366 465.111C447.489 465.262 445.429 464.94 443.791 464.405C442.147 463.879 440.72 463.654 440.609 463.941C440.492 464.237 439.936 464.286 439.369 464.063C438.801 463.84 438.6 463.441 438.931 463.179C439.261 462.918 438.15 462.505 436.464 462.257C434.774 462.025 432.311 461.472 430.975 461.075C428.611 460.379 428.609 460.371 430.784 460.618C432.01 460.759 432.714 460.704 432.362 460.492C431.552 460.021 432.483 457.127 433.319 457.481C433.655 457.627 433.726 458.239 433.465 458.846C433.16 459.565 433.453 459.989 434.302 460.072C435.015 460.149 437.71 460.938 440.275 461.875C442.838 462.837 445.818 463.469 446.856 463.459C447.57 463.441 448.437 463.536 449.34 463.709C450.236 463.859 451.168 464.087 451.988 464.343C453.63 464.861 454.853 465.506 454.597 465.938C454.357 466.343 454.373 466.473 454.627 466.222C455.37 465.521 457.515 466.483 457.491 467.543C457.474 468.082 458.861 469.04 460.664 469.7C462.289 470.278 463.772 470.505 464.897 470.395C466.02 470.278 466.788 469.807 467.011 469.044C467.149 468.578 467.759 468.138 468.363 468.061C468.967 467.984 469.566 467.562 469.693 467.114C469.814 466.676 469.594 466.423 469.194 466.56C468.793 466.697 468.382 466.436 468.284 465.972C468.188 465.516 468.823 464.889 469.687 464.583C472.263 463.67 471.776 462.971 467.976 462.084C464.519 461.207 464.413 461.225 465.885 462.595C466.734 463.387 466.99 463.914 466.45 463.771C465.908 463.62 464.95 464.153 464.309 464.947C463.507 465.953 462.675 466.196 461.562 465.745C460.858 465.445 459.19 464.854 457.034 464.139C454.873 463.401 452.241 462.511 449.616 461.62C448.631 461.271 447.862 461.223 447.901 461.512C447.948 461.8 446.524 461.527 444.738 460.902C442.439 460.119 441.767 459.568 442.408 459.191C443.04 458.808 442.672 458.434 441.203 457.944C438.292 456.981 438.3 456.979 439.057 458.264C439.584 459.158 439.413 459.168 438.274 458.322C436.128 456.747 433.109 454.827 430.553 453.51C428.001 452.176 425.956 451.268 425.753 451.727C425.584 452.098 426.08 452.74 426.866 453.145C428.004 453.732 428.022 453.838 426.958 453.681C426.14 453.559 425.595 453.944 425.534 454.69C425.474 455.444 425.185 455.648 424.767 455.232C424.392 454.859 424.407 454.085 424.8 453.501C425.365 452.655 424.948 452.175 422.755 451.147C420.606 450.139 420.353 449.846 421.577 449.822C422.856 449.793 422.749 449.646 421.009 448.954C419.841 448.469 418.807 448.243 418.708 448.448C418.614 448.644 415.526 447.409 411.872 445.637C408.235 443.805 405.545 442.135 405.892 441.909C406.239 441.682 405.451 441.238 404.143 440.921C402.844 440.578 400.344 439.585 398.586 438.725C396.829 437.865 395.199 437.17 394.972 437.179C394.746 437.187 393.757 436.823 392.774 436.356C391.553 435.781 391.165 435.2 391.561 434.497C392.063 433.588 391.991 433.551 390.94 434.122C389.91 434.681 389.723 434.53 389.571 432.979C389.404 431.305 389.282 431.225 387.621 431.655C385.408 432.219 384.37 431.75 386.191 431.005C386.928 430.699 387.255 430.454 387.036 429.981C386.813 429.524 386.051 428.83 384.645 427.601C383.505 426.621 383.056 426.558 382.901 427.374C382.781 427.978 382.31 428.243 381.839 427.964C381.376 427.684 381.055 427.149 381.135 426.768C381.366 425.619 379.409 423.816 378.022 423.92C376.882 424.002 376.778 424.153 377.228 425.152C377.607 425.987 377.194 425.947 375.735 425.014C374.338 424.081 373.887 423.272 374.211 422.311C374.46 421.558 374.318 420.948 373.904 420.963C373.48 420.972 373.116 421.352 373.101 421.804C373.085 422.256 372.711 422.403 372.274 422.132C371.837 421.862 370.752 421.427 369.869 421.171C368.61 420.803 368.472 420.53 369.256 419.929C370.631 418.846 367.705 416.73 362.511 414.626C360.3 413.751 358.326 412.653 358.141 412.188C357.548 410.736 356.505 410.087 355.972 410.838C355.622 411.341 355.462 411.27 355.493 410.594C355.563 408.886 354.19 407.436 353.181 408.147C352.12 408.902 349.611 407.487 350.297 406.524C350.537 406.183 350.116 405.53 349.372 405.068C348.631 404.588 346.535 402.702 344.82 400.731C342.71 398.274 336.879 393.801 326.979 385.967C325.097 384.532 323.366 383.075 321.723 381.684C320.082 380.3 318.533 378.973 317.088 377.714C315.648 376.446 314.283 375.285 313.082 374.124C311.877 372.972 310.774 371.889 309.787 370.887C305.828 366.877 303.61 364.172 303.504 363.002C303.437 362.279 302.985 361.627 302.502 361.556C302.018 361.478 299.146 359.262 296.103 356.633C294.471 355.223 293.242 354.077 292.529 353.323C291.821 352.56 291.641 352.18 292.067 352.343C293.343 352.817 293.346 352.698 292.139 351.444C291.375 350.648 290.68 350.291 290.585 350.645C290.553 350.77 289.066 349.435 286.752 347.272C284.456 345.089 281.252 342.16 278.054 338.806C274.832 335.481 271.378 331.984 268.461 328.812C265.574 325.602 263.126 322.826 261.709 321.136C260.97 320.247 259.545 318.716 257.829 316.902C256.159 315.046 254.199 312.914 252.306 310.891C248.528 306.845 245.009 303.278 244.768 303.226C244.077 303.175 243.886 304.323 244.151 305.918C244.422 307.503 245.127 309.572 246.149 311.422C249.161 316.875 248.103 316.166 244.262 310.161C241.898 306.508 240.768 305.023 239.926 304.969C239.107 304.91 238.72 305.005 238.86 305.733C238.932 306.093 239.13 306.611 239.476 307.344C239.814 308.08 240.306 309.021 240.991 310.206L243.401 314.493L241.091 313.406C238.388 312.133 237.297 311.479 233.232 308.195C231.081 306.472 229.809 305.949 228.846 306.397C227.777 306.895 227.373 306.663 226.906 305.307C226.58 304.364 225.503 302.582 224.521 301.344L222.722 299.094L218.838 301.814C214.482 304.861 214.46 304.898 216.521 310.466C217.271 312.492 217.543 314.337 217.12 314.543C216.699 314.756 216.712 315.389 217.167 315.955C217.658 316.574 217.614 316.876 217.037 316.71C215.22 316.187 213.405 317.307 213.691 318.795C213.818 319.471 215.738 322.635 217.906 325.935C220.119 329.2 222.651 332.537 223.795 333.728C224.566 334.523 224.552 334.628 223.745 334.102C222.348 333.201 220.087 333.951 220.29 335.262C220.51 336.702 218.744 335.585 214.579 331.633C210.259 327.404 209.038 326.799 208.601 328.974C208.405 330.037 209.122 331.576 211.034 333.869C213.029 336.212 213.462 337.042 212.525 336.76C211.801 336.544 210.688 335.77 210.062 335.05C209.308 334.196 208.828 333.881 208.49 334.239C208.152 334.597 207.968 335.617 207.887 337.375C207.759 340.065 207.993 340.503 210.981 343.131C212.761 344.693 216.17 347.398 218.563 349.141C220.288 350.418 221.492 351.303 222.353 352.178C223.222 353.05 223.776 353.89 224.304 354.98C225.03 356.494 227.054 359.113 228.796 360.81C231.429 363.375 231.844 364.1 231.274 365.12C230.895 365.794 230.832 366.596 231.128 366.902C231.424 367.207 232.018 366.833 232.444 366.061C233.134 364.822 233.464 364.914 235.317 366.837C236.79 368.372 237.168 369.239 236.601 369.786C236.16 370.209 235.696 370.118 235.582 369.587C235.218 367.883 234.334 367.108 233.256 367.537C231.893 368.091 232.178 369.185 234.162 371.036C236.299 373.022 236.891 374.182 237.019 376.629C237.075 377.756 237.371 378.965 237.662 379.311C237.953 379.664 238.538 380.473 238.965 381.116C239.391 381.758 239.954 382.061 240.229 381.797C240.705 381.327 239.788 379.876 238.187 378.592C237.765 378.255 237.923 377.485 238.541 376.886C239.159 376.286 239.906 376.049 240.203 376.361C240.499 376.666 241.118 376.554 241.578 376.111C242.17 375.534 241.942 374.961 240.818 374.142C239.944 373.507 239.453 372.762 239.741 372.487C240.021 372.214 240.574 372.283 240.965 372.651C241.353 373.013 242.737 374.184 244.039 375.242C245.763 376.676 246.784 377.685 246.967 378.333C247.155 378.971 246.546 379.222 245.112 379.038C243.835 378.878 242.296 378.492 241.686 378.193C241.123 377.921 241.373 378.521 241.982 379.363C242.598 380.203 243.615 381.26 244.528 381.957C245.042 382.35 247.861 384.995 250.789 387.826C252.257 389.245 253.684 390.555 254.805 391.524C255.939 392.481 256.782 393.085 257.017 393.145C259.074 393.618 266.015 399.14 264.914 399.441C264.514 399.546 264.464 399.889 264.791 400.194C265.128 400.505 265.768 400.349 266.229 399.85C266.926 399.09 267.435 399.43 269.423 401.838C270.751 403.392 273.205 405.773 274.871 407.127C275.695 407.815 277.064 408.958 278.609 410.24C279.376 410.886 280.192 411.575 280.998 412.259C281.813 412.94 282.644 413.594 283.406 414.226C287.448 417.516 289.092 418.521 289.314 417.854C289.65 416.843 291.775 418.974 291.72 420.262C291.654 421.536 294.269 423.382 294.959 422.529C295.753 421.556 296.526 422.098 296.722 423.765C296.84 424.727 297.157 424.862 298.062 424.342C298.718 423.961 299.814 424.149 300.498 424.752C301.485 425.62 301.48 425.731 300.464 425.288C298.111 424.251 298.243 425.815 300.637 427.275C302.009 428.111 302.658 428.825 302.187 428.995C301.744 429.151 301.255 428.925 301.091 428.485C300.928 428.045 300.596 427.945 300.347 428.25C299.854 428.874 302.218 431.882 304.961 433.995C305.976 434.754 306.833 435 306.874 434.558C306.915 434.115 306.311 433.484 305.537 433.162C304.165 432.586 303.9 430.991 304.848 429.296C305.105 428.832 305.573 428.647 305.876 428.887C306.18 429.128 306.172 429.672 305.855 430.088C305.468 430.599 305.707 430.706 306.573 430.408C307.431 430.112 307.683 430.207 307.296 430.719C306.982 431.142 307.161 431.806 307.694 432.21C308.225 432.607 308.703 432.529 308.748 432.039C308.797 431.531 309.516 431.662 310.421 432.33C311.299 432.98 311.86 433.724 311.669 433.975C311.479 434.226 314.087 436.498 317.477 439.027C322.203 442.433 323.533 443.61 322.875 444.046C322.4 444.359 322.488 444.943 323.078 445.357C323.662 445.772 323.773 446.256 323.33 446.443C322.384 446.832 324.714 449.77 326.041 449.87C326.531 449.907 327.084 450.747 327.273 451.739C327.567 453.193 327.848 453.439 328.768 453.041C329.602 452.68 329.993 452.891 330.286 453.826C330.505 454.527 331.65 456.04 332.839 457.189C334.028 458.337 334.829 459.541 334.615 459.861C334.174 460.535 324.507 453.423 322.169 450.392C321.163 449.152 320.353 448.587 320.106 448.931C319.661 449.559 313.175 444.539 311.84 442.348C311.23 441.404 310.947 441.316 310.892 442.053C310.796 443.335 309.378 442.376 308.671 440.559C308.306 439.618 308.394 439.432 309.005 439.864C309.468 440.207 309.871 440.014 309.916 439.429C309.975 438.707 309.478 438.545 308.308 438.887C307.372 439.155 306.85 439.054 307.147 438.659C307.892 437.675 305.27 434.612 304.062 435.057C303.382 435.309 302.614 434.75 301.494 433.207C300.613 431.999 299.522 430.961 299.067 430.907C298.612 430.853 296.319 429.259 293.969 427.364C291.607 425.488 289.684 424.244 289.634 424.681C289.582 425.11 290.26 425.849 291.166 426.264C292.075 426.687 292.409 427.085 291.913 427.151C290.749 427.357 283.335 421.613 284.228 421.331C284.593 421.21 284.508 420.799 284.034 420.411C283.567 420.022 283.138 420.041 283.08 420.448C283.023 420.855 281.997 420.375 280.796 419.371C279.227 418.056 278.903 417.443 279.659 417.179C280.493 416.881 280.422 416.82 279.272 416.857C277.601 416.928 275.842 415.612 277.033 415.258C277.93 414.991 276.408 412.068 275.397 412.127C275.038 412.143 275.192 412.546 275.727 413.021C276.269 413.494 276.483 414.142 276.206 414.461C275.93 414.78 275.532 414.83 275.321 414.583C274.35 413.421 273.662 413.353 273.997 414.459C274.747 416.902 272.451 416.292 269.582 413.281C267.401 410.984 265.375 408.774 263.9 407.074C262.463 405.333 261.559 404.123 261.541 403.891C261.531 403.658 262.198 403.385 263.033 403.283C264.887 403.057 267.257 405.002 265.72 405.488C264.879 405.757 264.944 405.827 266.101 405.82C266.889 405.816 268.409 406.576 269.477 407.519C270.544 408.461 271.647 408.97 271.926 408.658C272.593 407.905 269.246 404.972 268.096 405.3C267.608 405.435 267.058 405.09 266.888 404.526C266.493 403.207 263.155 400.634 261.816 400.639C261.178 400.645 261.097 400.925 261.598 401.392C262.201 401.952 262.091 402.145 261.143 402.172C260.195 402.199 259.746 401.688 259.334 400.137C258.58 397.293 256.973 394.926 256.531 396.017C256.339 396.489 257.352 398.844 258.795 401.252C263.047 408.352 263.052 408.532 258.447 404.333C255.796 401.922 254.381 400.239 254.887 400.116C255.348 400.003 254.939 399.686 253.973 399.411C252.659 399.04 252.32 398.691 252.614 397.99C252.924 397.261 252.591 396.965 251.024 396.593C249.573 396.24 249.355 396.026 250.138 395.843C250.867 395.664 250.85 395.496 250.072 395.316C249.419 395.161 246.17 392.212 242.954 389.043C241.342 387.455 239.74 385.818 238.472 384.445C237.21 383.063 236.328 381.91 236.05 381.388C235.663 380.617 235.108 380.219 234.822 380.501C234.529 380.785 234.791 381.885 235.395 382.964C235.997 384.036 236.076 384.708 235.564 384.456C235.053 384.204 234.453 384.17 234.229 384.382C234.12 384.487 234.72 385.292 235.863 386.538C237.025 387.772 238.725 389.456 240.741 391.401C242.756 393.346 245.093 395.535 247.544 397.775C250.008 400.003 252.66 402.194 255.158 404.273C258.112 406.696 261.757 409.973 265.774 413.355C269.771 416.751 273.876 420.521 277.827 423.825C279.777 425.503 281.633 427.117 283.326 428.614C285.019 430.111 286.527 431.497 287.857 432.642C290.484 434.956 292.127 436.568 292.18 436.98C292.225 437.291 290.723 436.345 288.866 435.014C287.936 434.345 286.92 433.579 285.97 432.828C285.019 432.07 284.164 431.288 283.495 430.649C282.788 429.957 281.991 429.665 281.721 429.982C281.424 430.346 282.644 432.006 284.201 433.686C285.789 435.334 287.739 436.981 288.796 437.398C289.635 437.728 290.691 438.626 291.148 439.395C291.749 440.428 291.062 440.234 288.549 438.67C285.588 436.83 285.815 437.113 290.239 440.734C293.052 443.035 295.199 445.129 295.008 445.38C294.907 445.515 296.378 446.814 298.827 448.819C300.05 449.817 301.523 450.998 303.165 452.288C304.813 453.568 306.593 455.004 308.56 456.395C313.918 460.259 317.507 462.826 319.906 464.308C322.318 465.779 323.466 466.277 323.868 466.115C324.706 465.769 324.819 465.843 324.4 466.481C324.113 466.92 324.331 467.583 324.879 467.952C325.435 468.32 326.132 468.267 326.43 467.84C326.791 467.319 326.974 467.518 326.988 468.443C326.993 469.205 327.213 469.521 327.483 469.14C327.769 468.732 330.682 470.442 333.735 472.306C336.771 474.198 339.834 476.391 340.239 477.204C340.507 477.752 341.261 478.314 341.918 478.453C342.577 478.598 344.234 479.726 345.596 480.998C347.312 482.591 348.48 483.234 349.371 483.071C350.33 482.899 350.432 482.961 349.778 483.317C349.458 483.49 349.735 483.879 350.759 484.58C351.27 484.927 351.968 485.361 352.876 485.879C353.79 486.387 354.919 486.968 356.27 487.652C360.304 489.685 364.329 491.878 368.57 494.081C372.771 496.349 377.128 498.705 381.739 501.195C384.95 502.997 387.964 504.249 388.325 504.145C388.699 504.03 389.911 504.725 391.032 505.693C391.502 506.097 392.569 506.717 393.937 507.405C395.318 508.082 397.004 508.81 398.679 509.494C400.353 510.177 402.021 510.8 403.36 511.243C404.72 511.673 405.758 511.915 406.156 511.865C406.539 511.818 406.395 512.231 405.835 512.777C405.071 513.522 405.147 513.731 406.136 513.615C406.857 513.533 408.494 513.872 409.778 514.376C411.054 514.882 412.699 515.219 413.435 515.102C414.387 514.963 414.491 515.095 413.801 515.563C413.077 516.055 413.349 516.263 414.88 516.424C416.003 516.534 417.145 516.397 417.414 516.111C417.692 515.83 418.217 515.718 418.593 515.869C418.968 516.014 418.852 516.569 418.342 517.095C417.567 517.89 417.831 518.132 419.952 518.51C421.5 518.776 422.603 519.317 422.736 519.921C422.882 520.515 425.3 521.756 429.011 523.019C430.693 523.575 432.765 524.334 434.753 525.106C436.76 525.858 438.704 526.609 440.059 527.214C443.531 528.724 444.997 529.042 444.772 528.381C444.603 527.856 443.392 527.099 442.076 526.689C440.774 526.268 439.826 525.588 439.956 525.186L439.93 525.114Z" fill="white"/>
<path d="M441.236 519.25C440.582 519.481 439.741 519.332 439.381 518.925C439.013 518.52 438.599 518.534 438.457 518.954C438.316 519.374 438.815 519.929 439.579 520.182C440.336 520.437 441.627 521.003 442.452 521.438C443.263 521.884 445.29 522.395 446.905 522.614C449.123 522.905 449.612 522.746 448.902 521.976C448.224 521.237 446.649 520.443 445.07 519.893C443.491 519.343 441.939 518.999 441.236 519.25Z" fill="white"/>
<path d="M420.077 512.274C420.778 512.559 421.653 512.588 422.009 512.336C422.727 511.822 418.616 508.958 417.687 509.319C416.889 509.633 418.501 511.637 420.077 512.274Z" fill="white"/>
<path d="M414.16 509.089C414.002 509.474 414.204 509.943 414.623 510.108C415.042 510.273 415.511 510.095 415.675 509.702C415.831 509.309 415.625 508.856 415.206 508.692C414.787 508.527 414.323 508.695 414.167 509.087L414.16 509.089Z" fill="white"/>
<path d="M409.858 507.538C410.4 508.042 411.144 508.246 411.517 507.997C412.486 507.351 411.494 506.296 410.079 506.477C409.145 506.595 409.092 506.829 409.858 507.538Z" fill="white"/>
<path d="M232.602 382.577C233.355 383.361 233.79 383.561 233.563 383.019C233.335 382.477 232.721 381.84 232.196 381.599C231.67 381.35 231.85 381.794 232.602 382.577Z" fill="white"/>
<path d="M420.494 507.547C420.614 508.132 419.728 508.026 418.086 507.248C416.658 506.575 415.163 506.138 414.772 506.281C414.375 506.433 415.561 507.213 417.454 507.953C419.815 508.893 421.152 509.038 421.744 508.429C422.271 507.876 422.16 507.36 421.452 507.077C420.823 506.83 420.393 507.037 420.494 507.547Z" fill="white"/>
<path d="M423.392 507.845C423.236 508.238 423.467 508.7 423.905 508.876C424.343 509.052 424.623 508.779 424.512 508.295C424.407 507.802 424.175 507.339 423.999 507.265C423.815 507.191 423.54 507.455 423.392 507.845Z" fill="white"/>
<path d="M226.282 367.89C225.915 367.296 225.269 367.139 224.846 367.534C223.933 368.378 224.206 368.783 226.032 369.28C226.761 369.487 227.282 369.486 227.158 369.304C227.036 369.129 226.649 368.485 226.282 367.89Z" fill="white"/>
<path d="M219.071 360.208C219.583 359.178 217.421 356.538 215.992 356.439C214.638 356.353 215.431 357.913 219.01 362.37C221.626 365.632 222.919 366.817 223.376 366.399C223.826 365.982 223.195 365.114 221.279 363.546C219.154 361.8 218.653 361.042 219.071 360.208Z" fill="white"/>
<path d="M375.787 485.049C375.586 485.421 375.742 485.894 376.131 486.097C376.52 486.301 376.993 486.17 377.193 485.798C377.394 485.427 377.238 484.953 376.849 484.75C376.467 484.544 375.987 484.677 375.787 485.049Z" fill="white"/>
<path d="M398.027 495.787C397.95 495.956 398.211 496.246 398.604 496.433C398.998 496.627 399.482 496.446 399.667 496.039C399.852 495.64 399.592 495.349 399.09 495.394C398.581 495.44 398.104 495.619 398.027 495.787Z" fill="white"/>
<path d="M351.222 469.083C350.832 471.286 352.02 472.207 353.06 470.497C353.468 469.815 353.425 468.772 352.949 468.181C351.833 466.786 351.615 466.895 351.22 469.076L351.222 469.083Z" fill="white"/>
<path d="M411.776 500.25C411.699 500.418 411.973 500.697 412.379 500.873C412.785 501.049 413.256 500.847 413.433 500.442C413.608 500.03 413.334 499.751 412.83 499.819C412.326 499.887 411.853 500.082 411.776 500.25Z" fill="white"/>
<path d="M253.518 392.774C253.223 393.082 253.378 393.713 253.876 394.165C254.366 394.62 254.851 394.603 254.944 394.116C255.038 393.63 254.877 393.008 254.581 392.735C254.285 392.461 253.815 392.474 253.518 392.774Z" fill="white"/>
<path d="M250.02 389.643C250.483 390.402 251.214 390.939 251.653 390.832C252.092 390.724 251.806 390.008 251.025 389.239C249.32 387.564 248.873 387.737 250.027 389.641L250.02 389.643Z" fill="white"/>
<path d="M242.198 382.621C242.877 383.234 243.137 383.233 242.861 382.624C242.615 382.071 242.117 381.619 241.753 381.613C241.389 381.608 241.587 382.063 242.196 382.614L242.198 382.621Z" fill="white"/>
<path d="M368.61 478.342C369.937 479.087 370.555 479.258 369.979 478.715C369.412 478.169 368.331 477.561 367.57 477.353C366.817 477.144 367.281 477.589 368.601 478.336L368.61 478.342Z" fill="white"/>
<path d="M311.855 440.898C312.612 441.412 312.865 441.382 312.511 440.808C312.186 440.29 311.635 439.905 311.268 439.956C310.909 440.004 311.171 440.428 311.853 440.89L311.855 440.898Z" fill="white"/>
<path d="M307.524 435.468C307.428 435.594 307.913 436.12 308.599 436.637C309.286 437.153 310.038 437.323 310.272 437.022C310.504 436.714 310.019 436.187 309.196 435.854C308.371 435.513 307.619 435.343 307.524 435.468Z" fill="white"/>
<path d="M317.66 441.475C317.412 441.811 317.48 442.282 317.813 442.515C318.147 442.748 318.795 442.786 319.255 442.603C319.722 442.418 319.654 441.947 319.102 441.563C318.558 441.177 317.909 441.139 317.66 441.475Z" fill="white"/>
<path d="M477.381 482.363C478.146 482.491 478.331 482.343 477.866 481.993C477.442 481.68 476.893 481.594 476.609 481.789C476.335 481.99 476.692 482.257 477.374 482.365L477.381 482.363Z" fill="white"/>
<path d="M467.112 471.127C466.999 471.533 467.365 471.994 467.934 472.161C468.504 472.329 468.875 472.073 468.768 471.603C468.66 471.134 468.285 470.667 467.946 470.57C467.606 470.472 467.226 470.722 467.112 471.127Z" fill="white"/>
<path d="M234.512 302.164C234.66 303.795 235.503 304.753 236.628 304.58C237.746 304.409 237.778 304.189 237.013 302.198C236.32 300.401 234.341 300.374 234.512 302.164Z" fill="white"/>
<path d="M392.572 434.117C392.362 434.482 392.63 435.03 393.162 435.333C393.694 435.635 394.122 435.483 394.121 434.996C394.112 434.51 393.851 433.961 393.53 433.78C393.21 433.599 392.782 433.751 392.572 434.117Z" fill="white"/>
<path d="M401.357 438.763C402.219 439.221 402.646 439.258 402.323 438.841C401.992 438.427 401.292 438.048 400.76 438.004C400.229 437.961 400.502 438.304 401.357 438.763Z" fill="white"/>
<path d="M376.641 422.024C376.37 422.46 375.965 422.417 375.741 421.922C375.492 421.361 375.323 421.41 375.296 422.038C375.243 423.302 375.489 423.469 376.542 422.905C376.995 422.661 377.311 422.182 377.252 421.843C377.185 421.505 376.911 421.58 376.641 422.024Z" fill="white"/>
<path d="M420.15 445.358C420.073 445.526 420.289 445.796 420.638 445.962C420.986 446.129 421.427 445.934 421.613 445.535C421.807 445.134 421.581 444.859 421.126 444.931C420.67 445.003 420.227 445.19 420.143 445.36L420.15 445.358Z" fill="white"/>
<path d="M458.356 459.561C459.743 460.008 459.971 459.905 459.406 459.115C458.452 457.799 457.148 457.339 456.825 458.244C456.686 458.64 457.374 459.258 458.356 459.561Z" fill="white"/>
<path d="M260.498 318.357C261.084 318.945 261.339 318.954 261.131 318.367C260.954 317.837 260.516 317.401 260.168 317.4C259.819 317.391 259.965 317.827 260.498 318.357Z" fill="white"/>
<path d="M262.363 316.249C263.089 316.701 263.529 317.529 263.352 318.092C263.165 318.648 264.016 320.477 265.24 322.152C266.986 324.541 267.588 324.999 268.015 324.265C268.93 322.689 263.575 314.891 261.829 315.263C261.393 315.354 261.637 315.798 262.365 316.257L262.363 316.249Z" fill="white"/>
<path d="M263.046 313.314C262.53 312.142 260.536 309.775 257.932 307.423C255.571 305.264 253.577 303.439 253.507 303.378C253.442 303.307 253.146 303.45 252.851 303.696C252.078 304.341 257.507 310.351 258.687 310.149C259.392 310.031 259.472 310.161 258.96 310.617C258.565 310.965 258.45 311.496 258.705 311.796C258.96 312.095 259.427 312.005 259.745 311.596C260.13 311.109 260.916 311.609 262.077 313.095C263.771 315.142 263.836 315.15 263.046 313.314Z" fill="white"/>
<path d="M240.912 555.631C241.152 556.611 241.382 556.484 241.955 555.03C242.358 554.004 242.332 553.223 241.884 553.294C241.436 553.364 241.528 552.421 242.091 551.182C243.021 549.154 243.183 549.075 243.9 550.386C244.399 551.294 244.884 551.6 245.222 551.211C245.518 550.871 245.929 551.392 246.146 552.369C246.362 553.347 246.271 553.809 245.942 553.402C245.133 552.389 244.513 554.2 245.188 555.6C246.039 557.366 246.818 557.325 247.545 555.464C248.077 554.099 248.448 553.938 249.401 554.672C250.306 555.371 250.822 555.221 251.59 554.042C252.636 552.426 251.399 551.147 250.085 552.476C249.674 552.891 249.561 552.69 249.797 551.98C250.022 551.319 250.707 550.994 251.351 551.238C252.154 551.553 252.549 551.236 252.653 550.212C252.729 549.398 253.109 548.857 253.491 549C253.873 549.142 254.101 548.913 254.012 548.487C253.916 548.062 254.239 547.645 254.734 547.571C255.987 547.375 257.677 542.691 256.998 541.276C256.544 540.325 256.632 540.265 257.424 540.952C258.243 541.656 258.544 541.37 259.139 539.36C259.534 538.013 260.18 537.045 260.571 537.193C260.965 537.349 261.298 537.102 261.308 536.659C261.323 536.207 261.084 535.778 260.774 535.704C260.471 535.629 259.759 534.686 259.195 533.613C258.632 532.54 257.773 531.515 257.293 531.326C256.812 531.137 255.981 530.609 255.44 530.143C254.671 529.482 254.284 529.773 253.605 531.536C253.134 532.768 252.676 534.531 252.59 535.465L252.436 537.154L254.108 535.77C255.026 535.01 255.938 533.969 256.138 533.464C256.337 532.959 256.835 532.673 257.254 532.837C257.671 532.995 257.703 533.349 257.332 533.605C256.962 533.868 257.1 535.006 257.648 536.146C258.582 538.089 258.546 538.231 257.062 538.578C256.189 538.784 255.09 538.612 254.618 538.201C254.098 537.754 253.592 537.878 253.34 538.521C253.114 539.111 253.175 539.647 253.492 539.719C255.129 540.089 255.147 540.58 253.547 541.035C252.559 541.316 252.16 541.523 252.666 541.494C253.164 541.467 253.402 541.888 253.195 542.427C252.419 544.409 251.462 542.276 252.094 539.967L252.743 537.598L251.057 539.245C250.127 540.149 249.48 541.274 249.604 541.747C249.728 542.22 249.176 544.243 248.356 546.237C246.823 549.986 246.843 549.973 243.65 548.34C243.118 548.069 243.464 546.812 244.753 544.35C246.208 541.571 246.373 540.862 245.474 541.216C244.094 541.766 237.988 556.158 237.915 559.039C237.879 560.597 238.116 560.342 239.244 557.644C240.245 555.26 240.706 554.698 240.923 555.613L240.912 555.631Z" fill="white"/>
<path d="M247.545 536.541C247.033 537.862 246.773 538.861 246.971 538.766C247.88 538.323 250.052 533.899 249.308 534.018C248.852 534.09 248.066 535.226 247.547 536.549L247.545 536.541Z" fill="white"/>
<path d="M241.728 557.925C241.456 558.715 241.566 558.94 242.002 558.495C242.392 558.093 242.595 557.508 242.441 557.2C242.294 556.89 241.971 557.213 241.728 557.925Z" fill="white"/>
<path d="M257.738 523.085C257.771 523.54 257.687 523.711 256.307 525.896C255.722 526.826 255.628 527.47 256.1 527.402C256.549 527.332 256.747 527.723 256.527 528.273C256.004 529.612 256.668 530.323 259.975 531.967C262.106 533.035 262.853 533.12 263.148 532.363C263.391 531.745 263.123 531.425 262.446 531.528C261.615 531.645 261.634 531.53 262.529 531.028C263.174 530.666 264.294 529.574 265.023 528.593C265.753 527.613 266.351 527.223 266.349 527.727C266.358 528.951 268.593 528.963 269.065 527.738C269.274 527.208 269.048 526.831 268.57 526.908C268.068 526.984 267.995 526.27 268.401 525.227C269.032 523.618 268.161 523.091 267.318 524.572C266.523 525.962 266.313 525.942 266.227 524.469C266.14 522.988 266.099 522.982 265.481 524.415C265.035 525.46 264.62 525.664 264.141 525.066C263.765 524.591 263.045 523.973 262.55 523.693C261.659 523.193 262.112 521.362 263.908 518.202C265.278 515.782 266.804 512.711 267.303 511.37C268.007 509.452 268.462 509.058 269.408 509.503C271.605 510.546 271.706 511.858 269.837 515.139C268.857 516.865 268.234 517.67 268.457 516.939C268.778 515.901 268.604 515.708 267.699 516.071C266.837 516.415 266.666 516.811 267.04 517.593C267.317 518.178 267.19 519.074 266.757 519.589C266.121 520.342 266.175 520.4 267.032 519.875C267.91 519.338 268.086 519.476 267.991 520.632C267.912 521.69 268.038 521.627 268.502 520.365C269.694 517.125 271.004 514.783 270.866 516.146C270.776 517.065 271.199 517.504 272.261 517.59C273.517 517.692 273.66 518.05 273.078 519.6C272.401 521.402 272.436 521.448 273.923 520.597C274.774 520.113 275.386 520.003 275.275 520.353C275.165 520.71 275.724 520.384 276.52 519.639L277.961 518.28L277.608 520.057C277.414 521.033 277.447 522.259 277.69 522.766C277.975 523.381 278.12 523.235 278.101 522.351C278.09 521.567 278.409 521.135 278.869 521.306C279.305 521.475 280.034 520.651 280.501 519.468L281.338 517.32L281.901 519.322C282.368 521.001 282.266 521.356 281.245 521.535C280.224 521.714 280.154 521.912 280.843 522.821C281.288 523.412 282.105 523.912 282.662 523.933C283.842 523.983 283.659 527.095 282.382 528.799C281.894 529.446 281.79 530.084 282.141 530.227C282.499 530.367 283.042 529.817 283.358 529.017C283.716 528.095 284.09 527.886 284.355 528.45C285.015 529.822 282.798 535.957 280.977 537.826C280.083 538.744 278.98 540.036 278.529 540.705C278.078 541.374 278.235 540.824 278.886 539.493C279.804 537.609 279.806 536.783 278.919 535.804C278.291 535.109 277.522 534.644 277.205 534.769C276.896 534.891 277.012 535.138 277.474 535.316C278.677 535.785 277.494 538.292 275.733 538.99C274.914 539.316 274.216 540.203 274.179 540.951C274.142 541.699 273.71 542.379 273.208 542.455C272.705 542.531 271.814 543.85 271.221 545.387C270.403 547.514 270.413 548.007 271.274 547.466C272.08 546.954 271.692 548.394 269.914 552.494C267.572 557.896 267.314 559.673 269.145 557.747C270.764 556.053 271.03 557.427 269.641 560.252C268.778 562.005 268.416 563.714 268.725 564.551C269.135 565.646 269.011 565.975 268.159 566.104C267.339 566.234 267.265 566.575 267.853 567.556C268.279 568.262 268.347 569.566 267.989 570.456C267.637 571.368 267.742 572.019 268.229 571.947C268.709 571.876 268.977 572.133 268.827 572.516C268.678 572.907 268.227 573.095 267.836 572.947C266.519 572.436 266.364 574.566 267.639 575.551C268.331 576.09 268.835 576.824 268.75 577.183C268.664 577.542 268.559 578.174 268.514 578.57C268.471 578.974 268.334 579.699 268.207 580.179C268.048 580.784 268.312 580.829 269.078 580.319C269.777 579.858 270.264 579.912 270.443 580.481C271.017 582.37 273.672 585.15 274.412 584.63C274.869 584.306 275.339 584.71 275.652 585.696C276.099 587.096 276.3 586.89 277.411 583.865C278.313 581.435 279.221 580.182 280.579 579.512C282.55 578.542 282.697 578.373 283.862 575.854C284.243 575.03 285.447 573.956 286.536 573.478C287.626 572.999 288.706 572.129 288.928 571.556C289.157 570.98 290.134 569.979 291.096 569.334C292.066 568.688 292.778 567.798 292.684 567.35C292.589 566.901 292.909 566.469 293.396 566.397C293.884 566.325 294.807 564.911 295.452 563.267C296.235 561.251 296.82 560.518 297.23 561.031C297.662 561.57 298.135 560.605 298.871 557.688C299.437 555.434 300.131 552.701 300.411 551.625C301.035 549.216 300.783 548.609 299.276 548.867C298.64 548.975 297.142 548.721 295.955 548.287C294.768 547.854 293.272 547.449 292.631 547.378C291.862 547.299 291.611 546.66 291.895 545.505C292.271 543.982 292.396 543.944 292.83 545.167C293.649 547.475 295.246 546.943 296.404 543.978C297.377 541.483 297.511 541.387 297.968 542.895C298.238 543.804 298.178 544.842 297.834 545.209C297.483 545.578 297.465 546.211 297.792 546.611C298.12 547.018 298.792 546.925 299.289 546.41C299.828 545.846 299.845 545.079 299.341 544.502C298.76 543.842 298.902 542.62 299.785 540.626C300.768 538.396 300.811 537.701 299.961 537.681C299.19 537.657 299.127 537.366 299.741 536.72C300.255 536.178 301.013 536.118 301.545 536.578C302.307 537.241 302.576 536.829 303.166 534.089C304.176 529.43 304.097 528.404 302.805 529.183C302.099 529.616 302.109 529.464 302.849 528.685C303.439 528.069 304.611 526.194 305.456 524.524C306.49 522.47 307.312 521.608 307.991 521.867C308.54 522.079 308.764 522.834 308.49 523.546C307.806 525.294 308.746 526.291 309.965 525.12C310.506 524.594 312.427 520.499 314.215 516.019C316.805 509.542 317.75 507.832 318.792 507.672C319.894 507.505 321.09 504.986 326.225 492.004C329.588 483.497 333.015 475.416 333.832 474.052C337.042 468.682 339.127 464.003 338.744 462.988C337.763 460.342 345.381 440.09 350.651 431.353C351.728 429.572 351.982 428.613 351.45 428.405C350.901 428.194 351.392 426.532 353.02 423.074C360.156 407.927 362.838 401.404 362.062 401.106C361.549 400.91 361.707 400.076 362.512 398.794C363.203 397.689 365.675 392.271 368.005 386.755C371.696 378.011 372.098 376.662 371.137 376.283C370.266 375.946 369.918 376.393 369.524 378.353C369.225 379.834 368.803 380.59 368.496 380.209C368.212 379.854 368.549 378.08 369.257 376.271C370.365 373.428 370.731 373.056 371.97 373.539C373.07 373.97 373.575 373.65 374.155 372.155C374.571 371.086 374.606 369.977 374.232 369.675C373.762 369.302 374.057 368.672 375.19 367.632C376.373 366.54 376.653 365.913 376.21 365.361C375.87 364.941 375.7 363.637 375.825 362.474C375.984 361.035 376.245 360.586 376.653 361.092C377.355 361.959 379.284 359.922 379.003 358.614C378.897 358.121 378.249 357.697 377.567 357.683C376.558 357.655 376.564 357.292 377.594 355.734C378.29 354.683 379.077 353.264 379.337 352.587C379.657 351.769 380.126 351.623 380.739 352.157C381.249 352.599 381.827 352.638 382.041 352.256C382.42 351.549 382.979 350.744 383.654 349.926C384.499 348.902 385.245 345.29 384.84 344.186C384.506 343.277 384.755 342.94 385.861 342.819C386.767 342.716 387.635 341.851 388.145 340.523C388.772 338.899 388.705 338.561 387.879 339.117C387.284 339.522 386.916 339.533 387.057 339.145C387.199 338.756 387.71 338.27 388.194 338.057C389.531 337.462 392.078 333.088 391.268 332.775C390.884 332.625 391.028 331.733 391.593 330.792C394.681 325.632 395.119 324.684 393.915 325.757C393.002 326.57 393.051 326.126 394.128 323.927C394.906 322.337 395.205 321.501 394.777 322.07C394.169 322.903 393.788 322.862 392.903 321.891C392.091 320.996 391.709 320.885 391.481 321.468C390.847 323.094 390.603 320.975 391.2 318.973C391.928 316.506 392.377 316.475 392.503 318.882C392.585 320.404 392.699 320.321 393.342 318.252C393.797 316.796 394.632 315.696 395.484 315.44C396.71 315.069 396.72 315.012 395.576 314.946C394.712 314.897 394.326 314.355 394.428 313.355C394.506 312.517 394.871 311.948 395.229 312.089C396.207 312.471 396.721 310.552 395.852 309.774C395.436 309.396 395.835 309.353 396.742 309.674C398.115 310.156 398.3 310.04 397.835 308.982C397.53 308.286 396.858 307.703 396.349 307.686C395.221 307.655 396.045 303.332 397.215 303.148C397.671 303.076 398.141 303.481 398.262 304.041C398.39 304.623 399.294 303.615 400.361 301.695C403.859 295.444 403.938 295.157 402.404 294.565C400.503 293.827 400.509 290.121 402.422 288.788C403.412 288.097 403.568 287.737 402.993 287.516C402.444 287.304 402.516 287.019 403.213 286.644C404.808 285.782 405.196 283.925 403.852 283.625C402.1 283.236 401.504 282.256 402.884 282.029C403.786 281.879 403.856 281.744 403.173 281.471C402.569 281.225 402.633 280.62 403.366 279.623C404.455 278.145 403.68 277.045 402.261 278.045C401.879 278.319 401.283 278.433 400.951 278.302C399.826 277.862 401.246 276.515 403.985 275.429C406.257 274.527 406.545 274.543 405.72 275.523C405.128 276.227 405.052 276.819 405.54 277.007C405.985 277.181 405.98 277.575 405.536 277.889C405.012 278.26 405.11 278.402 405.809 278.294C406.523 278.182 406.739 277.807 406.446 277.194C406.189 276.659 406.526 275.594 407.256 274.676C408.551 273.046 408.343 270.43 406.871 269.862C406.453 269.705 406.129 269.187 406.14 268.72C406.152 268.253 404.386 268.771 402.203 269.872C400.021 270.979 397.994 271.782 397.689 271.668C397.383 271.546 397.459 270.631 397.85 269.623C398.241 268.615 398.878 266.194 399.272 264.234C399.661 262.282 400.767 259.173 401.727 257.333C402.688 255.494 403.244 253.903 402.964 253.791C402.684 253.678 402.819 252.269 403.282 250.653C403.832 248.718 403.428 249.352 402.102 252.499C400.982 255.164 399.781 257.149 399.38 256.995C398.987 256.84 398.28 257.689 397.806 258.874C396.99 260.914 394.065 265.484 392.419 267.294C390.958 268.894 391.113 266.056 392.638 263.206C393.439 261.712 393.968 259.79 393.807 258.94C393.563 257.655 393.303 257.884 392.245 260.353C391.547 261.978 391.029 262.726 391.099 262.017C391.17 261.308 390.928 260.612 390.57 260.471C390.205 260.333 390.614 258.4 391.481 256.182C392.416 253.791 392.712 252.2 392.219 252.282C391.764 252.354 391.39 252.886 391.405 253.464C391.414 254.044 391.002 254.585 390.493 254.662C389.976 254.742 389.277 255.526 388.934 256.412C388.464 257.612 388.06 257.798 387.318 257.153C386.528 256.474 386.313 256.628 386.255 257.901C386.148 260.294 381.71 268.466 380.179 269.076C378.528 269.74 377.975 271.055 378.68 272.675C379.114 273.671 379.08 273.757 378.517 273.101C378.077 272.595 377.651 272.691 377.389 273.361C377.156 273.953 376.75 274.162 376.477 273.82C375.874 273.071 374.487 274.393 372.793 277.324C372.096 278.533 371.127 279.729 370.63 279.985C370.099 280.264 369.938 280.893 370.24 281.512C370.613 282.293 370.294 283.016 369.013 284.289C367.737 285.553 367.201 285.715 366.999 284.892C366.78 284.001 366.478 283.957 365.542 284.643C364.894 285.123 364.256 285.736 364.117 286.006C363.986 286.274 363.388 286.892 362.802 287.365C362.084 287.942 361.981 288.455 362.486 288.906C363.084 289.444 363.055 289.521 362.328 289.29C361.824 289.13 361.293 289.315 361.142 289.698C360.994 290.088 361.321 290.331 361.877 290.25C362.599 290.136 362.551 290.486 361.697 291.474C360.215 293.181 359.293 295.467 357.559 301.672C356.815 304.331 355.563 307.296 354.765 308.254C353.37 309.932 353.363 309.902 354.496 307.384C355.139 305.953 355.364 304.592 355.003 304.373C354.634 304.157 354.261 304.437 354.173 305.009C354.085 305.581 353.652 305.907 353.216 305.738C352.78 305.57 352.299 305.986 352.141 306.662C351.984 307.338 350.814 309.417 349.541 311.27C347.015 314.955 345.052 320.295 346.298 320.101C346.739 320.032 346.329 321.446 345.362 323.326C344.364 325.269 344.041 326.394 344.595 326.015C345.316 325.516 345.47 325.565 345.226 326.207C344.97 326.898 343.666 328.114 341.667 329.546C341.507 329.664 341.155 329.035 340.885 328.157C340.449 326.706 340.222 326.841 338.523 329.592C336.062 333.576 336.066 333.559 336.9 333.874C337.292 334.022 337.868 333.637 338.175 333.027C339.763 329.823 339.689 329.905 339.947 331.281C340.308 333.166 339.047 334.906 337.178 335.104C336.279 335.198 335.351 335.307 335.124 335.347C334.897 335.386 335.047 335.837 335.457 336.351C336.368 337.488 333.903 345.122 332.544 345.368C331.9 345.479 331.704 346.124 331.898 347.43C332.177 349.272 331.471 351.569 329.196 356.183C328.586 357.426 328.321 358.757 328.607 359.151C328.932 359.606 328.709 360.078 327.995 360.449C326.356 361.29 325.073 363.586 317.858 378.603C317.265 379.849 313.222 388.797 308.889 398.492C304.549 408.189 298.79 420.428 296.077 425.7C291.527 434.544 287.512 443.957 286.345 448.49C285.833 450.487 287.071 454.179 287.713 452.583C287.997 451.876 288.119 451.925 288.33 452.849C288.547 453.795 288.972 453.919 290.8 453.59C292.914 453.206 293.007 453.262 292.849 454.835C292.755 455.738 292.195 456.733 291.584 457.039C290.982 457.352 290.498 458.178 290.504 458.876C290.534 460.474 287.539 463.377 286.335 462.908C285.838 462.715 285.189 463.189 284.89 463.962C284.513 464.935 284.716 465.373 285.565 465.393C286.477 465.414 286.592 465.881 286.009 467.204C284.754 470.09 282.982 472.065 282.723 470.878C282.41 469.444 281.239 469.11 280.763 470.319C280.55 470.867 280.012 471.179 279.574 471.003C278.99 470.776 278.89 471.013 279.213 471.878C279.721 473.24 273.75 487.67 268.509 497.745C266.687 501.249 264.055 506.431 262.66 509.266C259.524 515.64 259.54 515.613 258.592 515.829C258.167 515.933 258.169 516.294 258.61 516.642C259.051 516.991 259.023 518.484 258.551 519.968C258.079 521.452 257.71 522.84 257.724 523.057L257.738 523.085Z" fill="white"/>
<path d="M275.71 474.898C275.317 474.742 274.88 474.92 274.733 475.286C274.586 475.652 274.792 476.074 275.185 476.229C275.578 476.385 276.016 476.207 276.163 475.841C276.302 475.476 276.103 475.053 275.71 474.898Z" fill="white"/>
<path d="M278.004 471.261C277.872 470.657 277.477 470.368 277.136 470.616C276.786 470.859 276.609 471.555 276.742 472.16C276.875 472.764 277.269 473.053 277.61 472.805C277.961 472.562 278.137 471.866 278.004 471.261Z" fill="white"/>
<path d="M244.934 556.913C244.374 556.428 243.862 556.499 243.629 557.09C243.422 557.629 243.733 558.253 244.317 558.479C244.909 558.704 245.489 558.625 245.622 558.302C245.747 557.972 245.436 557.348 244.932 556.905L244.934 556.913Z" fill="white"/>
<path d="M285.232 452.537C284.848 452.387 284.362 452.718 284.149 453.266C283.936 453.813 283.885 454.313 284.041 454.37C284.197 454.426 284.686 454.102 285.125 453.641C285.563 453.179 285.614 452.679 285.232 452.537Z" fill="white"/>
<path d="M242.311 562.745C242.04 563.535 242.15 563.76 242.585 563.315C242.976 562.913 243.179 562.328 243.025 562.02C242.87 561.712 242.555 562.033 242.311 562.745Z" fill="white"/>
<path d="M327.377 347.073C327.018 347.986 327.038 348.422 327.411 348.047C327.79 347.664 328.08 346.916 328.06 346.386C328.039 345.849 327.731 346.168 327.379 347.08L327.377 347.073Z" fill="white"/>
<path d="M243.248 566.495C242.653 566.9 242.05 567.528 241.911 567.892C241.771 568.256 242.136 568.23 242.731 567.825C243.325 567.42 243.929 566.793 244.068 566.429C244.215 566.062 243.843 566.09 243.248 566.495Z" fill="white"/>
<path d="M331.884 340.048C331.054 340.683 330.613 341.554 330.768 342.279C331.137 343.974 332.164 343.306 332.755 340.991C333.231 339.105 333.188 339.061 331.884 340.048Z" fill="white"/>
<path d="M256.667 536.457C256.3 536.311 255.679 536.416 255.297 536.69C254.914 536.965 255.094 537.377 255.706 537.62C256.317 537.856 256.938 537.752 257.077 537.387C257.216 537.023 257.034 536.603 256.667 536.457Z" fill="white"/>
<path d="M281.848 467.765C281.576 468.555 281.687 468.78 282.122 468.335C282.512 467.933 282.716 467.348 282.561 467.04C282.407 466.732 282.091 467.053 281.848 467.765Z" fill="white"/>
<path d="M328.692 347.577C328.208 348.82 328.326 349.074 329.238 348.709C330.143 348.346 330.284 347.989 329.863 347.109C329.442 346.229 329.183 346.332 328.692 347.577Z" fill="white"/>
<path d="M248.542 557.823C247.967 557.602 247.288 558.24 246.812 559.45C246.386 560.545 246.318 561.553 246.667 561.688C247.015 561.823 247.79 561.09 248.39 560.063C249.134 558.788 249.18 558.076 248.535 557.825L248.542 557.823Z" fill="white"/>
<path d="M288.69 457.079C286.776 456.705 285.92 458.165 287.663 458.84C288.542 459.175 289.316 458.986 289.561 458.376C289.804 457.758 289.453 457.23 288.7 457.084L288.69 457.079Z" fill="white"/>
<path d="M244.35 569.985C243.956 569.83 243.519 570.008 243.372 570.374C243.233 570.738 243.431 571.162 243.825 571.317C244.218 571.473 244.655 571.295 244.802 570.929C244.949 570.562 244.743 570.141 244.35 569.985Z" fill="white"/>
<path d="M245.392 567.324C244.999 567.168 244.561 567.346 244.415 567.712C244.268 568.079 244.474 568.5 244.867 568.656C245.26 568.811 245.698 568.633 245.837 568.269C245.976 567.904 245.778 567.481 245.385 567.326L245.392 567.324Z" fill="white"/>
<path d="M246.821 563.663C246.505 563.277 245.98 563.712 245.602 564.677C245.241 565.615 245.262 566.506 245.654 566.654C246.047 566.81 246.597 566.353 246.872 565.641C247.147 564.928 247.125 564.037 246.821 563.663Z" fill="white"/>
<path d="M263.302 521.873C262.598 522.187 262.275 522.541 262.587 522.654C263.663 523.051 265.538 522.467 265.064 521.883C264.803 521.561 264.014 521.558 263.302 521.873Z" fill="white"/>
<path d="M343.736 322.002C343.376 322.915 343.396 323.351 343.77 322.976C344.149 322.593 344.439 321.845 344.419 321.315C344.398 320.778 344.088 321.09 343.737 322.009L343.736 322.002Z" fill="white"/>
<path d="M261.162 545.865C260.75 546.918 262.286 547.195 263.203 546.239C264.043 545.357 262.625 542.44 261.44 542.628C261.091 542.682 261.367 541.364 262.057 539.708C262.745 538.046 263.182 536.421 263.024 536.098C262.866 535.775 262.496 536.133 262.195 536.898C261.902 537.662 261.393 538.644 261.066 539.078C260.748 539.517 260.226 540.895 259.917 542.143C259.578 543.524 259.757 544.573 260.383 544.813C260.949 545.029 261.296 545.51 261.149 545.876L261.162 545.865Z" fill="white"/>
<path d="M253.508 561.052C252.812 561.333 252.65 561.703 253.032 562.168C253.341 562.556 253.935 562.631 254.351 562.333C255.427 561.574 254.757 560.55 253.508 561.052Z" fill="white"/>
<path d="M356.5 297.841C356.194 297.72 355.658 298.204 355.311 298.911C354.963 299.617 354.986 300.319 355.351 300.458C355.719 300.604 356.254 300.119 356.54 299.389C356.826 298.658 356.806 297.963 356.5 297.841Z" fill="white"/>
<path d="M271.129 519.338C270.309 519.664 269.635 520.033 269.619 520.163C269.604 520.293 269.61 520.834 269.625 521.373C269.69 523.087 270.636 522.793 271.638 520.739C272.509 518.953 272.458 518.808 271.129 519.338Z" fill="white"/>
<path d="M260.316 550.13C259.866 549.548 259.862 549.211 260.313 549.376C260.763 549.541 261.527 549.15 262.008 548.505C262.764 547.503 262.647 547.35 261.268 547.483C259.641 547.637 258.706 548.81 259.273 549.992C259.436 550.338 259.925 550.753 260.35 550.909C260.775 551.064 260.761 550.721 260.311 550.14L260.316 550.13Z" fill="white"/>
<path d="M264.907 541.615C266.34 540.8 266.358 541 265.125 544.141C263.403 548.565 264.423 550.054 266.243 545.771C267.497 542.814 267.557 542.767 267.122 545.108C266.803 546.829 266.953 547.406 267.601 546.964C268.122 546.609 268.427 546.086 268.291 545.789C268.147 545.494 268.719 544.835 269.547 544.318C270.745 543.576 271.001 543.01 270.766 541.636C270.602 540.678 270.347 539.671 270.194 539.401C270.041 539.132 270.282 538.027 270.737 536.956C271.331 535.552 271.222 534.785 270.347 534.244C269.341 533.617 269.108 533.792 269.047 535.246C268.978 536.797 268.872 536.846 268.166 535.674C267.726 534.94 267.395 533.692 267.431 532.904C267.513 530.989 266.364 530.617 265.83 532.392C265.601 533.163 265.491 533.969 265.589 534.173C265.686 534.377 265.408 535.719 264.972 537.155C263.142 543.132 263.15 542.618 264.9 541.616L264.907 541.615Z" fill="white"/>
<path d="M270.187 529.061C270.667 528.991 270.937 529.255 270.782 529.654C270.628 530.054 269.971 530.364 269.328 530.348C267.327 530.295 267.977 532.59 270.044 532.879C271.13 533.03 271.773 533.431 271.609 533.857C271.174 534.977 272.769 534.469 273.738 533.178C274.505 532.157 274.368 532.018 272.564 531.963C270.593 531.903 270.567 531.831 271.786 529.983C272.481 528.924 273.159 527.799 273.277 527.479C273.404 527.157 274.075 527.095 274.77 527.326C275.57 527.595 275.751 527.495 275.257 527.058C274.824 526.676 273.86 526.542 273.11 526.765C271.139 527.349 272.043 525.311 274.127 524.479C274.996 524.133 275.588 523.619 275.453 523.329C275.039 522.479 273.372 523.012 272.93 524.135C272.653 524.84 272.12 524.884 271.234 524.267C270.377 523.666 269.816 523.693 269.563 524.337C269.356 524.875 269.605 525.247 270.115 525.17C270.632 525.09 270.827 525.404 270.563 525.87C269.527 527.689 269.35 529.187 270.185 529.053L270.187 529.061Z" fill="white"/>
<path d="M257.888 556.529C257.616 557.318 257.727 557.543 258.162 557.099C258.552 556.696 258.756 556.112 258.601 555.803C258.447 555.495 258.131 555.816 257.888 556.529Z" fill="white"/>
<path d="M256.155 563.834C255.981 563.766 255.725 564.01 255.579 564.376C255.432 564.742 255.656 565.175 256.074 565.332C256.491 565.49 256.747 565.247 256.651 564.79C256.554 564.334 256.33 563.901 256.155 563.834Z" fill="white"/>
<path d="M368.096 282.421C367.703 282.266 367.262 282.46 367.106 282.852C366.957 283.243 367.225 283.499 367.703 283.422C368.183 283.352 368.632 283.155 368.694 282.991C368.756 282.826 368.488 282.569 368.096 282.421Z" fill="white"/>
<path d="M264.864 550.08C264.353 549.638 263.962 549.364 263.979 549.463C264.004 549.566 263.896 550.379 263.745 551.274C263.594 552.168 263.83 552.841 264.28 552.779C265.543 552.588 265.887 550.97 264.864 550.08Z" fill="white"/>
<path d="M385.567 239.776C384.518 239.938 382.836 244.235 382.972 246.427C383.039 247.535 383.559 246.763 384.754 243.82C385.813 241.194 386.114 239.689 385.567 239.776Z" fill="white"/>
<path d="M264.476 556.341C264.083 556.185 263.576 556.529 263.361 557.101C263.139 557.674 263.349 558.079 263.827 558.002C264.305 557.924 264.814 557.587 264.949 557.239C265.085 556.892 264.875 556.487 264.484 556.339L264.476 556.341Z" fill="white"/>
<path d="M391.08 230.004C390.362 231.737 390.406 232.174 391.276 231.828C392.116 231.489 392.366 230.901 392.224 229.551C392.041 227.842 391.975 227.866 391.088 230.002L391.08 230.004Z" fill="white"/>
<path d="M388.885 237.997C388.469 239.097 388.49 239.533 388.923 238.955C389.357 238.377 389.696 237.476 389.677 236.946C389.657 236.416 389.3 236.889 388.885 237.997Z" fill="white"/>
<path d="M259.536 577.408C259.142 577.252 258.705 577.43 258.566 577.794C258.426 578.159 258.625 578.582 259.018 578.738C259.411 578.893 259.849 578.715 259.995 578.349C260.142 577.983 259.936 577.561 259.543 577.406L259.536 577.408Z" fill="white"/>
<path d="M274.981 536.28C274.418 537.747 274.363 538.326 274.854 537.562C275.346 536.804 275.807 535.598 275.88 534.896C275.95 534.187 275.544 534.813 274.981 536.28Z" fill="white"/>
<path d="M277.427 529.634C277.156 530.423 277.266 530.648 277.701 530.204C278.092 529.801 278.295 529.217 278.141 528.908C277.986 528.6 277.671 528.921 277.427 529.634Z" fill="white"/>
<path d="M265.965 563.047C265.572 562.891 265.018 563.365 264.733 564.103C264.449 564.841 264.539 565.559 264.93 565.707C265.323 565.862 265.877 565.388 266.162 564.65C266.446 563.912 266.356 563.195 265.965 563.047Z" fill="white"/>
<path d="M258.166 586.064C257.992 585.996 257.736 586.24 257.589 586.606C257.45 586.97 257.667 587.405 258.085 587.562C258.502 587.72 258.758 587.476 258.661 587.02C258.563 586.556 258.341 586.131 258.166 586.064Z" fill="white"/>
<path d="M261.04 583.921C261.32 583.294 261.069 582.593 260.477 582.368C259.886 582.143 259.285 582.266 259.129 582.659C258.973 583.051 259.217 583.306 259.65 583.239C260.091 583.17 260.47 583.558 260.482 584.089C260.501 584.682 260.721 584.613 261.025 583.925L261.04 583.921Z" fill="white"/>
<path d="M266.497 567.077C265.887 566.841 265.266 566.946 265.126 567.31C264.987 567.675 265.169 568.094 265.536 568.24C265.903 568.386 266.525 568.282 266.907 568.007C267.289 567.733 267.109 567.321 266.497 567.077Z" fill="white"/>
<path d="M259.257 591.278C259.689 591.621 259.682 592.944 259.236 594.21C257.364 599.599 256.997 601.702 257.887 602.05C258.436 602.262 259.121 601.615 259.573 600.466C260.502 598.084 261.868 596.578 262.446 597.294C262.684 597.589 263.284 596.499 263.792 594.872C264.419 592.832 264.986 592.024 265.615 592.272C266.112 592.465 266.195 593.058 265.804 593.586C265.315 594.233 265.547 594.726 266.499 595.099C267.283 595.403 267.856 595.357 267.774 594.992C267.694 594.634 267.968 594.465 268.387 594.63C268.806 594.794 268.624 596.239 267.994 597.879C267.36 599.505 267.067 601.11 267.343 601.46C267.629 601.822 268.383 600.269 269.124 597.792C269.861 595.331 270.529 593.94 270.699 594.536C271.236 596.402 273.005 595.317 273.799 592.637C274.738 589.458 274.059 587.981 270.767 586.041C268.388 584.641 268.226 584.657 267.571 586.327C267.067 587.615 267.209 588.099 268.099 588.125C268.893 588.143 269.429 589.011 269.646 590.633C269.831 591.996 269.769 593.19 269.51 593.293C269.252 593.396 269.069 592.811 269.106 592C269.181 590.314 267.011 588.478 265.888 589.271C265.472 589.57 265.559 589.729 266.092 589.654C266.617 589.573 267.121 589.89 267.228 590.359C267.522 591.719 265.362 590.533 264.576 588.908C264.186 588.091 264.039 586.979 264.246 586.44C264.459 585.893 264.24 585.514 263.753 585.586C263.273 585.656 262.791 586.521 262.682 587.492C262.559 588.63 261.933 589.484 260.927 589.887C259.497 590.457 259.401 590.418 259.796 589.424C260.028 588.825 259.822 588.404 259.334 588.475C258.847 588.547 258.533 589.002 258.636 589.488C258.738 589.966 258.34 590.433 257.747 590.523C256.979 590.64 256.847 590.908 257.279 591.448C257.619 591.868 258.03 591.87 258.186 591.446C258.352 591.028 258.833 590.965 259.265 591.308L259.257 591.278Z" fill="white"/>
<path d="M393.724 240.258C393.365 241.172 393.385 241.607 393.759 241.233C394.138 240.849 394.428 240.102 394.408 239.572C394.386 239.034 394.076 239.346 393.726 240.265L393.724 240.258Z" fill="white"/>
<path d="M258.915 592.101C258.481 592.357 257.796 592.651 257.405 592.762C257.007 592.875 257.11 593.329 257.632 593.784C258.313 594.372 258.741 594.189 259.142 593.123C259.455 592.308 259.349 591.846 258.915 592.101Z" fill="white"/>
<path d="M398.857 229.227C398.498 230.14 398.518 230.576 398.891 230.201C399.27 229.818 399.56 229.07 399.541 228.54C399.519 228.003 399.209 228.315 398.859 229.234L398.857 229.227Z" fill="white"/>
<path d="M264.312 582.531C263.885 582.172 263.8 581.697 264.122 581.469C264.445 581.24 264.462 580.733 264.155 580.352C263.452 579.478 262.835 580.981 263.219 582.641C263.377 583.318 263.862 583.719 264.296 583.526C264.737 583.332 264.739 582.891 264.312 582.531Z" fill="white"/>
<path d="M403.713 220.827C403.442 221.617 403.552 221.841 403.987 221.397C404.378 220.995 404.581 220.41 404.426 220.102C404.272 219.794 403.956 220.115 403.713 220.827Z" fill="white"/>
<path d="M402.876 226.993C402.667 227.524 402.036 228.551 401.475 229.286C400.914 230.021 400.782 230.738 401.175 230.893C402.231 231.304 404.297 228.187 403.736 227.026C403.4 226.33 403.145 226.322 402.869 226.995L402.876 226.993Z" fill="white"/>
<path d="M408.221 217.53C407.827 217.375 406.974 218.621 406.327 220.29C405.606 222.141 405.481 223.273 406.02 223.188C406.5 223.118 407.354 221.871 407.915 220.428C408.475 218.986 408.621 217.684 408.221 217.53Z" fill="white"/>
<path d="M403.221 232.446C402.828 232.29 402.101 233.215 401.594 234.495C401.096 235.773 401.006 236.951 401.398 237.099C401.789 237.247 402.518 236.33 403.024 235.05C403.523 233.772 403.612 232.594 403.221 232.446Z" fill="white"/>
<path d="M268.073 604.144C267.801 604.934 267.912 605.159 268.347 604.714C268.737 604.312 268.941 603.727 268.786 603.419C268.639 603.109 268.316 603.432 268.073 604.144Z" fill="white"/>
<path d="M267.258 610.273C266.865 610.118 266.49 610.131 266.426 610.288C266.364 610.453 266.558 610.893 266.863 611.267C267.17 611.648 267.538 611.636 267.696 611.252C267.844 610.861 267.65 610.421 267.258 610.273Z" fill="white"/>
<path d="M270.373 602.3C269.316 602.495 269.388 602.627 270.713 602.948C271.628 603.172 272.685 603.236 273.06 603.09C274.095 602.679 271.876 602.026 270.373 602.3Z" fill="white"/>
<path d="M272.288 596.703C272.001 596.915 272.053 597.642 272.42 598.331C272.963 599.354 273.147 599.395 273.461 598.587C273.901 597.457 273.079 596.132 272.288 596.703Z" fill="white"/>
<path d="M403.705 267.09C402.808 267.71 402.652 267.622 402.634 266.487C402.62 265.758 402.319 265.046 401.971 264.911C401.038 264.549 400.901 265.503 401.688 266.907C402.657 268.636 403.789 268.91 404.312 267.539C404.687 266.559 404.59 266.488 403.705 267.09Z" fill="white"/>
<path d="M264.02 623.846C263.215 624.168 262.479 624.639 262.375 624.893C262.279 625.144 262.822 625.169 263.587 624.943C264.352 624.716 265.095 624.243 265.231 623.896C265.366 623.548 264.816 623.525 264.02 623.846Z" fill="white"/>
<path d="M270.669 605.916C270.398 606.706 270.508 606.93 270.943 606.486C271.334 606.084 271.537 605.499 271.383 605.191C271.228 604.882 270.912 605.203 270.669 605.916Z" fill="white"/>
<path d="M266.594 620.739C266.234 621.653 266.254 622.088 266.628 621.714C267.007 621.33 267.297 620.583 267.277 620.053C267.256 619.515 266.946 619.827 266.595 620.746L266.594 620.739Z" fill="white"/>
<path d="M270.231 611.426C269.872 612.34 269.892 612.775 270.266 612.401C270.645 612.017 270.935 611.27 270.915 610.74C270.893 610.202 270.583 610.514 270.233 611.433L270.231 611.426Z" fill="white"/>
<path d="M280.562 589.049C279.947 588.279 278.882 589.436 278.643 591.13C278.547 591.83 278.763 592.516 279.128 592.655C279.974 592.983 281.219 589.863 280.562 589.049Z" fill="white"/>
<path d="M273.624 606.609C273.269 605.13 272.955 605.939 272.845 608.608C272.785 610.164 272.872 610.261 273.349 609.185C273.669 608.462 273.795 607.306 273.624 606.609Z" fill="white"/>
<path d="M305.512 527.003C305.217 527.76 305.104 528.425 305.26 528.481C305.939 528.74 307.054 526.886 306.575 526.287C306.282 525.927 305.808 526.247 305.511 526.996L305.512 527.003Z" fill="white"/>
<path d="M300.744 545.881C300.385 546.795 300.405 547.23 300.779 546.856C301.158 546.472 301.447 545.725 301.428 545.195C301.406 544.658 301.096 544.969 300.746 545.889L300.744 545.881Z" fill="white"/>
<path d="M308.875 526.818C308.064 526.505 307.944 526.818 307.832 529.48C307.758 531.267 307.801 531.249 308.67 529.228C309.17 528.051 309.266 526.966 308.875 526.818Z" fill="white"/>
<path d="M406.248 279.248C405.488 279.363 404.418 281.174 404.976 281.392C405.124 281.45 405.653 280.967 406.146 280.311C406.64 279.655 406.682 279.181 406.248 279.248Z" fill="white"/>
<path d="M306.808 535.975C306.103 535.707 303.263 543.354 303.56 544.721C303.652 545.131 304.568 543.397 305.608 540.854C306.641 538.312 307.183 536.119 306.808 535.975Z" fill="white"/>
<path d="M306.899 534.16C306.627 534.949 306.738 535.174 307.173 534.73C307.563 534.327 307.767 533.743 307.612 533.435C307.458 533.126 307.142 533.447 306.899 534.16Z" fill="white"/>
<path d="M303.36 549.819C303.067 549.206 302.596 548.795 302.322 548.901C302.048 549.007 301.952 549.385 302.123 549.728C302.286 550.073 302.758 550.485 303.161 550.646C303.606 550.82 303.684 550.495 303.36 549.819Z" fill="white"/>
<path d="M318.417 508.684C317.937 508.754 317.488 508.95 317.426 509.115C317.364 509.28 317.632 509.536 318.024 509.684C318.415 509.833 318.858 509.645 319.014 509.253C319.163 508.863 318.895 508.606 318.417 508.684Z" fill="white"/>
<path d="M410.529 274.032C409.799 274.014 409.011 274.467 408.787 275.033C408.565 275.606 408.522 275.978 408.694 275.874C408.863 275.761 409.644 275.311 410.436 274.873C411.684 274.175 411.696 274.062 410.529 274.032Z" fill="white"/>
<path d="M297.889 570.685C299.045 568.358 299.632 563.07 298.76 562.733C297.846 562.383 296.917 565.701 297.741 566.356C298.3 566.802 298.042 567.164 296.82 567.651C295.886 568.021 295.017 568.69 294.873 569.134C294.697 569.704 294.824 569.736 295.311 569.247C296.613 567.93 297.302 569.067 296.485 571.17C295.433 573.858 296.479 573.492 297.88 570.68L297.889 570.685Z" fill="white"/>
<path d="M302.121 553.771C300.756 553.735 300.263 554.297 300.761 555.331C301.386 556.625 302.986 556.65 303.483 555.365C304.053 553.896 303.987 553.818 302.121 553.771Z" fill="white"/>
<path d="M310.757 532.524C311.116 531.61 311.084 530.737 310.69 530.582C310.297 530.426 309.56 531.377 309.047 532.69C308.501 534.098 308.47 535.097 308.975 535.13C309.449 535.164 309.896 534.96 309.972 534.69C310.045 534.412 310.398 533.437 310.757 532.524Z" fill="white"/>
<path d="M379.308 355.551C378.264 356.278 378.273 356.543 379.345 357.052C380.211 357.461 380.823 357.225 381.153 356.382C381.781 354.765 380.958 354.4 379.302 355.56L379.308 355.551Z" fill="white"/>
<path d="M301.132 557.709C300.329 557.072 300.175 557.314 299.952 559.555C299.882 560.265 300.142 560.972 300.534 561.12C301.544 561.51 302.08 558.453 301.132 557.709Z" fill="white"/>
<path d="M308.733 537.486C307.732 537.102 306.506 541.011 307.387 541.771C307.959 542.268 308.344 541.812 308.774 540.095C309.102 538.796 309.082 537.621 308.733 537.486Z" fill="white"/>
<path d="M342.508 453.29C342.115 453.135 341.673 453.329 341.517 453.721C341.369 454.112 341.637 454.369 342.115 454.291C342.595 454.221 343.043 454.025 343.105 453.86C343.168 453.695 342.899 453.438 342.508 453.29Z" fill="white"/>
<path d="M397.404 315.419C396.829 316.354 396.065 317.004 395.7 316.866C395.335 316.727 394.904 316.934 394.748 317.327C394.594 317.726 394.917 318.08 395.463 318.119C396.009 318.158 396.906 317.184 397.447 315.951C398.214 314.222 398.2 314.099 397.394 315.413L397.404 315.419Z" fill="white"/>
<path d="M399.707 310.758C399.349 310.617 398.83 311.106 398.544 311.837C398.258 312.567 398.148 313.215 398.297 313.273C398.445 313.331 398.973 312.848 399.467 312.193C399.954 311.539 400.072 310.897 399.714 310.756L399.707 310.758Z" fill="white"/>
<path d="M356.272 424.914C355.627 426.558 355.506 427.287 355.998 426.53C356.491 425.773 357.012 424.426 357.165 423.539C357.318 422.652 356.918 423.269 356.272 424.914Z" fill="white"/>
<path d="M402.155 307.107C401.796 308.021 401.816 308.457 402.189 308.082C402.568 307.698 402.858 306.951 402.839 306.421C402.817 305.884 402.509 306.203 402.157 307.115L402.155 307.107Z" fill="white"/>
<path d="M406.056 297.132C405.697 298.046 405.717 298.481 406.09 298.107C406.47 297.723 406.759 296.976 406.74 296.446C406.718 295.909 406.408 296.22 406.058 297.14L406.056 297.132Z" fill="white"/>
<path d="M388.9 343.02C388.629 343.81 388.739 344.034 389.174 343.59C389.565 343.188 389.768 342.603 389.614 342.295C389.459 341.987 389.143 342.308 388.9 343.02Z" fill="white"/>
<path d="M382.036 371.321C382.46 369.802 382.513 368.444 382.164 368.309C381.816 368.174 381.552 368.16 381.579 368.271C381.608 368.39 381.32 369.656 380.937 371.087C380.555 372.517 380.471 373.78 380.758 373.891C381.045 374.001 381.612 372.84 382.036 371.321Z" fill="white"/>
<path d="M387.177 355.695C386.783 355.539 386.161 356.187 385.798 357.117C385.42 358.083 385.515 358.759 386.01 358.686C386.49 358.615 387.112 357.968 387.388 357.263C387.663 356.551 387.57 355.85 387.177 355.695Z" fill="white"/>
<path d="M388.938 351.206C388.537 352.208 388.342 353.082 388.49 353.14C389.187 353.41 390.172 351.635 389.932 350.562C389.735 349.697 389.463 349.874 388.938 351.206Z" fill="white"/>
<path d="M390.454 347.453C390.183 348.243 390.293 348.468 390.728 348.023C391.119 347.621 391.322 347.036 391.168 346.728C391.02 346.418 390.697 346.741 390.454 347.453Z" fill="white"/>
</g>
<defs>
<filter id="filter0_f_324_7278" x="0.604126" y="0.604126" width="859.123" height="823.454" filterUnits="userSpaceOnUse" color-interpolation-filters="sRGB">
<feFlood flood-opacity="0" result="BackgroundImageFix"/>
<feBlend mode="normal" in="SourceGraphic" in2="BackgroundImageFix" result="shape"/>
<feGaussianBlur stdDeviation="77.6979" result="effect1_foregroundBlur_324_7278"/>
</filter>
</defs>
</svg>
